<mxfile host="app.diagrams.net" modified="2024-05-31T21:23:49.515Z" agent="Mozilla/5.0 (Windows NT 10.0; Win64; x64) AppleWebKit/537.36 (KHTML, like Gecko) Chrome/125.0.0.0 Safari/537.36 Edg/125.0.0.0" etag="7KgQFiF8WoBwmiH5F2KU" version="24.4.10" type="device">
  <diagram id="cPhL8d0vtsXr2UynWkRd" name="Page-1">
    <mxGraphModel dx="1386" dy="785" grid="1" gridSize="10" guides="1" tooltips="1" connect="1" arrows="1" fold="1" page="1" pageScale="1" pageWidth="850" pageHeight="1100" math="0" shadow="0">
      <root>
        <mxCell id="0" />
        <mxCell id="1" parent="0" />
        <mxCell id="iD_WnmKbnR4dIF5asDQz-8" value="" style="group;movable=0;resizable=0;rotatable=0;deletable=0;editable=0;connectable=0;" parent="1" vertex="1" connectable="0">
          <mxGeometry x="40" y="440" width="400" height="160" as="geometry" />
        </mxCell>
        <mxCell id="J6pMH1p_7KSv0R4gjlsr-36" value="DEVOPS" style="rounded=0;whiteSpace=wrap;html=1;dashed=1;labelBackgroundColor=default;sketch=1;fillStyle=solid;strokeColor=#660033;fontColor=#000000;fillColor=#FF99CC;opacity=10;strokeWidth=3;fontSize=14;verticalAlign=bottom;labelPosition=center;verticalLabelPosition=top;align=center;fontStyle=1" parent="iD_WnmKbnR4dIF5asDQz-8" vertex="1">
          <mxGeometry width="400" height="160" as="geometry" />
        </mxCell>
        <mxCell id="iD_WnmKbnR4dIF5asDQz-7" value="" style="group" parent="iD_WnmKbnR4dIF5asDQz-8" vertex="1" connectable="0">
          <mxGeometry x="40" y="20" width="320" height="120" as="geometry" />
        </mxCell>
        <mxCell id="J6pMH1p_7KSv0R4gjlsr-63" value="" style="rounded=0;whiteSpace=wrap;html=1;labelBackgroundColor=default;sketch=1;fillStyle=auto;strokeColor=#000000;strokeWidth=1;fontSize=12;fontColor=#000000;fillColor=#C8DEB1;" parent="iD_WnmKbnR4dIF5asDQz-7" vertex="1">
          <mxGeometry width="320" height="120" as="geometry" />
        </mxCell>
        <mxCell id="J6pMH1p_7KSv0R4gjlsr-61" value="Github (repo + actions)" style="dashed=0;outlineConnect=0;html=1;align=center;labelPosition=center;verticalLabelPosition=bottom;verticalAlign=top;shape=mxgraph.weblogos.github;labelBackgroundColor=default;sketch=0;fillStyle=auto;strokeColor=#000000;strokeWidth=1;fontSize=12;fontColor=#000000;fillColor=#C8DEB1;aspect=fixed;fontStyle=5" parent="iD_WnmKbnR4dIF5asDQz-7" vertex="1">
          <mxGeometry x="60" y="30" width="50" height="50" as="geometry" />
        </mxCell>
        <mxCell id="J6pMH1p_7KSv0R4gjlsr-62" value="Container Registry" style="aspect=fixed;html=1;points=[];align=center;image;fontSize=12;image=img/lib/azure2/containers/Container_Registries.svg;labelBackgroundColor=default;sketch=0;fillStyle=auto;strokeColor=#000000;strokeWidth=1;fontColor=#000000;fillColor=#C8DEB1;fontStyle=5" parent="iD_WnmKbnR4dIF5asDQz-7" vertex="1">
          <mxGeometry x="210" y="30" width="55.74" height="50" as="geometry" />
        </mxCell>
        <mxCell id="SqgddykTs4HYqL3Znm7L-14" value="" style="shape=flexArrow;endArrow=classic;html=1;rounded=0;sketch=1;strokeColor=#3333FF;fillColor=#0000FF;endSize=14;startSize=14;" parent="1" edge="1">
          <mxGeometry width="50" height="50" relative="1" as="geometry">
            <mxPoint x="439" y="960" as="sourcePoint" />
            <mxPoint x="559" y="960" as="targetPoint" />
          </mxGeometry>
        </mxCell>
        <mxCell id="4sDrs3y0H4A2jOYdoPgo-5" value="" style="group;movable=1;resizable=1;rotatable=1;deletable=1;editable=1;connectable=1;" parent="1" vertex="1" connectable="0">
          <mxGeometry x="790" y="170" width="280" height="190" as="geometry" />
        </mxCell>
        <mxCell id="iD_WnmKbnR4dIF5asDQz-13" value="&lt;font style=&quot;font-size: 30px;&quot;&gt;&lt;b&gt;Contoso Traders&lt;br&gt;&lt;/b&gt;&lt;/font&gt;" style="rounded=1;whiteSpace=wrap;html=1;fillColor=#E1D5E7;fillStyle=hatch;sketch=1;movable=1;resizable=1;rotatable=1;deletable=1;editable=1;connectable=1;" parent="4sDrs3y0H4A2jOYdoPgo-5" vertex="1">
          <mxGeometry y="34" width="280" height="156" as="geometry" />
        </mxCell>
        <mxCell id="iD_WnmKbnR4dIF5asDQz-14" value="" style="shape=image;aspect=fixed;image=data:image/svg+xml,PHN2ZyB3aWR0aD0iMTUwIiBoZWlnaHQ9IjE1MCIgdmlld0JveD0iMCAwIDk2IDk2IiB4bWxucz0iaHR0cDovL3d3dy53My5vcmcvMjAwMC9zdmciPg0KICAgIDxkZWZzPg0KICAgICAgICA8bGluZWFyR3JhZGllbnQgaWQ9ImUzOTljMTlmLWI2OGYtNDI5ZC1iMTc2LTE4YzIxMTdmZjczYyIgeDE9Ii0xMDMyLjE3MiIgeDI9Ii0xMDU5LjIxMyIgeTE9IjE0NS4zMTIiIHkyPSI2NS40MjYiIGdyYWRpZW50VHJhbnNmb3JtPSJtYXRyaXgoMSAwIDAgLTEgMTA3NSAxNTgpIiBncmFkaWVudFVuaXRzPSJ1c2VyU3BhY2VPblVzZSI+DQogICAgICAgICAgICA8c3RvcCBvZmZzZXQ9IjAiIHN0b3AtY29sb3I9IiMxMTRhOGIiLz4NCiAgICAgICAgICAgIDxzdG9wIG9mZnNldD0iMSIgc3RvcC1jb2xvcj0iIzA2NjliYyIvPg0KICAgICAgICA8L2xpbmVhckdyYWRpZW50Pg0KICAgICAgICA8bGluZWFyR3JhZGllbnQgaWQ9ImFjMmE2ZmMyLWNhNDgtNDMyNy05YTNjLWQ0ZGNjMzI1NmUxNSIgeDE9Ii0xMDIzLjcyNSIgeDI9Ii0xMDI5Ljk4IiB5MT0iMTA4LjA4MyIgeTI9IjEwNS45NjgiIGdyYWRpZW50VHJhbnNmb3JtPSJtYXRyaXgoMSAwIDAgLTEgMTA3NSAxNTgpIiBncmFkaWVudFVuaXRzPSJ1c2VyU3BhY2VPblVzZSI+DQogICAgICAgICAgICA8c3RvcCBvZmZzZXQ9IjAiIHN0b3Atb3BhY2l0eT0iLjMiLz4NCiAgICAgICAgICAgIDxzdG9wIG9mZnNldD0iLjA3MSIgc3RvcC1vcGFjaXR5PSIuMiIvPg0KICAgICAgICAgICAgPHN0b3Agb2Zmc2V0PSIuMzIxIiBzdG9wLW9wYWNpdHk9Ii4xIi8+DQogICAgICAgICAgICA8c3RvcCBvZmZzZXQ9Ii42MjMiIHN0b3Atb3BhY2l0eT0iLjA1Ii8+DQogICAgICAgICAgICA8c3RvcCBvZmZzZXQ9IjEiIHN0b3Atb3BhY2l0eT0iMCIvPg0KICAgICAgICA8L2xpbmVhckdyYWRpZW50Pg0KICAgICAgICA8bGluZWFyR3JhZGllbnQgaWQ9ImE3ZmVlOTcwLWE3ODQtNGJiMS1hZjhkLTYzZDE4ZTVmN2RiOSIgeDE9Ii0xMDI3LjE2NSIgeDI9Ii05OTcuNDgyIiB5MT0iMTQ3LjY0MiIgeTI9IjY4LjU2MSIgZ3JhZGllbnRUcmFuc2Zvcm09Im1hdHJpeCgxIDAgMCAtMSAxMDc1IDE1OCkiIGdyYWRpZW50VW5pdHM9InVzZXJTcGFjZU9uVXNlIj4NCiAgICAgICAgICAgIDxzdG9wIG9mZnNldD0iMCIgc3RvcC1jb2xvcj0iIzNjY2JmNCIvPg0KICAgICAgICAgICAgPHN0b3Agb2Zmc2V0PSIxIiBzdG9wLWNvbG9yPSIjMjg5MmRmIi8+DQogICAgICAgIDwvbGluZWFyR3JhZGllbnQ+DQogICAgPC9kZWZzPg0KICAgIDxwYXRoIGZpbGw9InVybCgjZTM5OWMxOWYtYjY4Zi00MjlkLWIxNzYtMThjMjExN2ZmNzNjKSIgZD0iTTMzLjMzOCA2LjU0NGgyNi4wMzhsLTI3LjAzIDgwLjA4N2E0LjE1MiA0LjE1MiAwIDAgMS0zLjkzMyAyLjgyNEg4LjE0OWE0LjE0NSA0LjE0NSAwIDAgMS0zLjkyOC01LjQ3TDI5LjQwNCA5LjM2OGE0LjE1MiA0LjE1MiAwIDAgMSAzLjkzNC0yLjgyNXoiLz4NCiAgICA8cGF0aCBmaWxsPSIjMDA3OGQ0IiBkPSJNNzEuMTc1IDYwLjI2MWgtNDEuMjlhMS45MTEgMS45MTEgMCAwIDAtMS4zMDUgMy4zMDlsMjYuNTMyIDI0Ljc2NGE0LjE3MSA0LjE3MSAwIDAgMCAyLjg0NiAxLjEyMWgyMy4zOHoiLz4NCiAgICA8cGF0aCBmaWxsPSJ1cmwoI2FjMmE2ZmMyLWNhNDgtNDMyNy05YTNjLWQ0ZGNjMzI1NmUxNSkiIGQ9Ik0zMy4zMzggNi41NDRhNC4xMTggNC4xMTggMCAwIDAtMy45NDMgMi44NzlMNC4yNTIgODMuOTE3YTQuMTQgNC4xNCAwIDAgMCAzLjkwOCA1LjUzOGgyMC43ODdhNC40NDMgNC40NDMgMCAwIDAgMy40MS0yLjlsNS4wMTQtMTQuNzc3IDE3LjkxIDE2LjcwNWE0LjIzNyA0LjIzNyAwIDAgMCAyLjY2Ni45NzJIODEuMjRMNzEuMDI0IDYwLjI2MWwtMjkuNzgxLjAwN0w1OS40NyA2LjU0NHoiLz4NCiAgICA8cGF0aCBmaWxsPSJ1cmwoI2E3ZmVlOTcwLWE3ODQtNGJiMS1hZjhkLTYzZDE4ZTVmN2RiOSkiIGQ9Ik02Ni41OTUgOS4zNjRhNC4xNDUgNC4xNDUgMCAwIDAtMy45MjgtMi44MkgzMy42NDhhNC4xNDYgNC4xNDYgMCAwIDEgMy45MjggMi44MmwyNS4xODQgNzQuNjJhNC4xNDYgNC4xNDYgMCAwIDEtMy45MjggNS40NzJoMjkuMDJhNC4xNDYgNC4xNDYgMCAwIDAgMy45MjctNS40NzJ6Ii8+DQo8L3N2Zz4=;movable=1;resizable=1;rotatable=1;deletable=1;editable=1;connectable=1;" parent="4sDrs3y0H4A2jOYdoPgo-5" vertex="1">
          <mxGeometry x="210" width="60" height="60" as="geometry" />
        </mxCell>
        <mxCell id="4sDrs3y0H4A2jOYdoPgo-6" value="" style="group;movable=0;resizable=0;rotatable=0;deletable=0;editable=0;connectable=0;" parent="1" vertex="1" connectable="0">
          <mxGeometry x="40" y="680" width="400" height="600" as="geometry" />
        </mxCell>
        <mxCell id="jxoymsFl4kqGbWP8mDqd-24" value="FRONT END" style="rounded=0;whiteSpace=wrap;html=1;labelBackgroundColor=none;sketch=1;strokeColor=#660033;strokeWidth=3;fontColor=#000000;fillColor=#99CCFF;glass=0;shadow=0;dashed=1;verticalAlign=bottom;labelPosition=center;verticalLabelPosition=top;align=center;fontSize=15;fontStyle=1;opacity=10;fillStyle=solid;" parent="4sDrs3y0H4A2jOYdoPgo-6" vertex="1">
          <mxGeometry width="400" height="600" as="geometry" />
        </mxCell>
        <mxCell id="4sDrs3y0H4A2jOYdoPgo-1" value="" style="group" parent="4sDrs3y0H4A2jOYdoPgo-6" vertex="1" connectable="0">
          <mxGeometry x="192.87" y="420" width="170" height="120" as="geometry" />
        </mxCell>
        <mxCell id="4sDrs3y0H4A2jOYdoPgo-2" value="" style="group" parent="4sDrs3y0H4A2jOYdoPgo-1" vertex="1" connectable="0">
          <mxGeometry width="170" height="120" as="geometry" />
        </mxCell>
        <mxCell id="4sDrs3y0H4A2jOYdoPgo-3" value="" style="group" parent="4sDrs3y0H4A2jOYdoPgo-2" vertex="1" connectable="0">
          <mxGeometry width="170" height="120" as="geometry" />
        </mxCell>
        <mxCell id="lu38r3Qyk8rX4jfRfJHu-1" value="Product Images" style="rounded=0;whiteSpace=wrap;html=1;sketch=1;fillColor=#67AB9F;verticalAlign=top;labelPosition=center;verticalLabelPosition=bottom;align=center;" parent="4sDrs3y0H4A2jOYdoPgo-3" vertex="1">
          <mxGeometry width="170" height="120" as="geometry" />
        </mxCell>
        <mxCell id="lu38r3Qyk8rX4jfRfJHu-2" value="Storage Account" style="sketch=0;aspect=fixed;html=1;points=[];align=center;image;fontSize=12;image=img/lib/mscae/BlobBlock.svg;fillColor=#67AB9F;fontStyle=5" parent="4sDrs3y0H4A2jOYdoPgo-3" vertex="1">
          <mxGeometry x="59" y="39" width="50" height="42" as="geometry" />
        </mxCell>
        <mxCell id="6ZIBDE49WQn55EvCpT9G-3" value="" style="group" parent="4sDrs3y0H4A2jOYdoPgo-6" vertex="1" connectable="0">
          <mxGeometry x="200" y="180" width="168" height="141.5" as="geometry" />
        </mxCell>
        <mxCell id="3Wsy6diL1BG13nHRlo5x-10" value="Contoso Traders &lt;br&gt;(Main Website)" style="rounded=0;whiteSpace=wrap;html=1;glass=0;sketch=1;fillStyle=auto;strokeWidth=1;fillColor=#F8CECC;gradientColor=none;verticalAlign=top;labelPosition=center;verticalLabelPosition=bottom;align=center;" parent="6ZIBDE49WQn55EvCpT9G-3" vertex="1">
          <mxGeometry y="21.5" width="168" height="119.99999999999999" as="geometry" />
        </mxCell>
        <mxCell id="3Wsy6diL1BG13nHRlo5x-17" value="ReactJS" style="shape=image;html=1;verticalAlign=top;verticalLabelPosition=bottom;labelBackgroundColor=#ffffff;imageAspect=0;aspect=fixed;image=https://cdn1.iconfinder.com/data/icons/unicons-line-vol-5/24/react-128.png;rounded=0;glass=0;dashed=1;sketch=1;fillStyle=auto;strokeColor=#000000;strokeWidth=1;fillColor=#FFCC99;gradientColor=none;" parent="6ZIBDE49WQn55EvCpT9G-3" vertex="1">
          <mxGeometry x="127.94999999999999" width="39.35714285714285" height="39.35714285714285" as="geometry" />
        </mxCell>
        <mxCell id="6ZIBDE49WQn55EvCpT9G-1" value="App Service" style="aspect=fixed;html=1;points=[];align=center;image;fontSize=12;image=img/lib/azure2/compute/App_Services.svg;rounded=0;glass=0;dashed=1;sketch=1;fillStyle=auto;strokeColor=#000000;strokeWidth=1;fillColor=#FFCC99;gradientColor=none;fontStyle=5" parent="6ZIBDE49WQn55EvCpT9G-3" vertex="1">
          <mxGeometry x="52.50999999999999" y="50.00999999999999" width="62.97142857142856" height="62.97142857142856" as="geometry" />
        </mxCell>
        <mxCell id="jxoymsFl4kqGbWP8mDqd-28" style="rounded=0;sketch=1;orthogonalLoop=1;jettySize=auto;html=1;exitX=1;exitY=0.5;exitDx=0;exitDy=0;entryX=0;entryY=0.5;entryDx=0;entryDy=0;strokeColor=#0000FF;strokeWidth=1;fontColor=#000000;endArrow=block;endFill=1;" parent="4sDrs3y0H4A2jOYdoPgo-6" source="3Wsy6diL1BG13nHRlo5x-4" target="3Wsy6diL1BG13nHRlo5x-10" edge="1">
          <mxGeometry relative="1" as="geometry" />
        </mxCell>
        <mxCell id="J6pMH1p_7KSv0R4gjlsr-22" value="" style="group" parent="4sDrs3y0H4A2jOYdoPgo-6" vertex="1" connectable="0">
          <mxGeometry x="30" y="60" width="126" height="100" as="geometry" />
        </mxCell>
        <mxCell id="3Wsy6diL1BG13nHRlo5x-2" value="" style="rounded=0;whiteSpace=wrap;html=1;strokeWidth=1;glass=0;sketch=1;fillStyle=auto;fillColor=#FFFFCC;gradientColor=none;" parent="J6pMH1p_7KSv0R4gjlsr-22" vertex="1">
          <mxGeometry width="126" height="100" as="geometry" />
        </mxCell>
        <mxCell id="3Wsy6diL1BG13nHRlo5x-7" value="DNS Zone" style="sketch=0;aspect=fixed;html=1;points=[];align=center;image;fontSize=12;image=img/lib/mscae/DNS.svg;fontStyle=5" parent="J6pMH1p_7KSv0R4gjlsr-22" vertex="1">
          <mxGeometry x="38.400000000000006" y="25.399999999999977" width="49.19642857142857" height="49.19642857142857" as="geometry" />
        </mxCell>
        <mxCell id="J6pMH1p_7KSv0R4gjlsr-23" value="" style="group" parent="4sDrs3y0H4A2jOYdoPgo-6" vertex="1" connectable="0">
          <mxGeometry x="30" y="320" width="126" height="100" as="geometry" />
        </mxCell>
        <mxCell id="3Wsy6diL1BG13nHRlo5x-4" value="" style="rounded=0;whiteSpace=wrap;html=1;sketch=1;fillColor=#FF9999;" parent="J6pMH1p_7KSv0R4gjlsr-23" vertex="1">
          <mxGeometry width="126" height="100" as="geometry" />
        </mxCell>
        <mxCell id="3Wsy6diL1BG13nHRlo5x-9" value="&lt;b&gt;&lt;u&gt;FrontDoor / CDN&lt;/u&gt;&lt;/b&gt;" style="aspect=fixed;html=1;points=[];align=center;image;fontSize=12;image=img/lib/azure2/networking/CDN_Profiles.svg;rounded=0;glass=1;sketch=0;strokeWidth=1;" parent="J6pMH1p_7KSv0R4gjlsr-23" vertex="1">
          <mxGeometry x="29.549999999999997" y="20.639999999999986" width="66.90714285714286" height="39.357142857142854" as="geometry" />
        </mxCell>
        <mxCell id="lu38r3Qyk8rX4jfRfJHu-4" style="rounded=0;sketch=1;orthogonalLoop=1;jettySize=auto;html=1;exitX=1;exitY=0.5;exitDx=0;exitDy=0;entryX=0;entryY=0.5;entryDx=0;entryDy=0;strokeColor=#0000FF;strokeWidth=1;fontColor=#000000;endArrow=block;endFill=1;" parent="4sDrs3y0H4A2jOYdoPgo-6" source="3Wsy6diL1BG13nHRlo5x-4" target="lu38r3Qyk8rX4jfRfJHu-1" edge="1">
          <mxGeometry relative="1" as="geometry">
            <mxPoint x="137" y="423" as="sourcePoint" />
            <mxPoint x="210" y="501.03999999999996" as="targetPoint" />
          </mxGeometry>
        </mxCell>
        <mxCell id="jxoymsFl4kqGbWP8mDqd-26" style="edgeStyle=orthogonalEdgeStyle;rounded=0;orthogonalLoop=1;jettySize=auto;html=1;entryX=0.5;entryY=0;entryDx=0;entryDy=0;fontColor=#000000;endArrow=block;endFill=1;strokeWidth=1;strokeColor=#0000FF;sketch=1;" parent="4sDrs3y0H4A2jOYdoPgo-6" source="3Wsy6diL1BG13nHRlo5x-2" target="3Wsy6diL1BG13nHRlo5x-4" edge="1">
          <mxGeometry relative="1" as="geometry" />
        </mxCell>
        <mxCell id="J6pMH1p_7KSv0R4gjlsr-40" value="MONITORING &amp;amp; TELEMETRY" style="rounded=0;whiteSpace=wrap;html=1;dashed=1;labelBackgroundColor=default;sketch=1;fillStyle=solid;strokeColor=#660033;fontColor=#000000;fillColor=#C8DEB1;opacity=10;strokeWidth=3;fontSize=15;verticalAlign=bottom;labelPosition=center;verticalLabelPosition=top;align=center;fontStyle=1;movable=0;resizable=0;rotatable=0;deletable=0;editable=0;connectable=0;" parent="1" vertex="1">
          <mxGeometry x="40" y="200" width="720" height="160" as="geometry" />
        </mxCell>
        <mxCell id="J6pMH1p_7KSv0R4gjlsr-55" value="" style="rounded=0;whiteSpace=wrap;html=1;labelBackgroundColor=default;sketch=1;fillStyle=auto;strokeColor=#000000;strokeWidth=1;fontSize=15;fontColor=#000000;fillColor=#FFD966;" parent="1" vertex="1">
          <mxGeometry x="80" y="220" width="640" height="120" as="geometry" />
        </mxCell>
        <mxCell id="J6pMH1p_7KSv0R4gjlsr-47" value="Azure Monitor" style="shape=image;aspect=fixed;image=data:image/svg+xml,PHN2ZyBpZD0iZTRlNzY0Y2QtMmU3My00NzJmLWI4OGEtYmY4YmZjMmMyOTk0IiB4bWxucz0iaHR0cDovL3d3dy53My5vcmcvMjAwMC9zdmciIHdpZHRoPSIxOCIgaGVpZ2h0PSIxOCIgdmlld0JveD0iMCAwIDE4IDE4Ij48ZGVmcz48cmFkaWFsR3JhZGllbnQgaWQ9ImFjOGIzMmRhLTMwY2EtNGI5Mi04ZDBmLThkMmQ1ZWYyNzhhMCIgY3g9IjUuNzIiIGN5PSI3LjQ1IiByPSI4LjQyIiBncmFkaWVudFRyYW5zZm9ybT0idHJhbnNsYXRlKDMuMjMgMS41MSkgc2NhbGUoMS4wMSAxLjAxKSIgZ3JhZGllbnRVbml0cz0idXNlclNwYWNlT25Vc2UiPjxzdG9wIG9mZnNldD0iMC4xOCIgc3RvcC1jb2xvcj0iIzVlYTBlZiIgLz48c3RvcCBvZmZzZXQ9IjAuNTYiIHN0b3AtY29sb3I9IiM1YzlmZWUiIC8+PHN0b3Agb2Zmc2V0PSIwLjY5IiBzdG9wLWNvbG9yPSIjNTU5Y2VkIiAvPjxzdG9wIG9mZnNldD0iMC43OCIgc3RvcC1jb2xvcj0iIzRhOTdlOSIgLz48c3RvcCBvZmZzZXQ9IjAuODYiIHN0b3AtY29sb3I9IiMzOTkwZTQiIC8+PHN0b3Agb2Zmc2V0PSIwLjkzIiBzdG9wLWNvbG9yPSIjMjM4N2RlIiAvPjxzdG9wIG9mZnNldD0iMC45OSIgc3RvcC1jb2xvcj0iIzA4N2JkNiIgLz48c3RvcCBvZmZzZXQ9IjEiIHN0b3AtY29sb3I9IiMwMDc4ZDQiIC8+PC9yYWRpYWxHcmFkaWVudD48cmFkaWFsR3JhZGllbnQgaWQ9ImE5OTU0ODIwLWNiMzgtNDk0My05ODQyLWYwYTU2OGQyYjAxNSIgY3g9IjI4LjE4IiBjeT0iMjAyLjI5IiByPSIyLjciIGdyYWRpZW50VHJhbnNmb3JtPSJ0cmFuc2xhdGUoLTE3Ljc3IC0xODUuMDEpIHNjYWxlKDAuOTUpIiBncmFkaWVudFVuaXRzPSJ1c2VyU3BhY2VPblVzZSI+PHN0b3Agb2Zmc2V0PSIwLjE5IiBzdG9wLWNvbG9yPSIjOGM4ZTkwIiAvPjxzdG9wIG9mZnNldD0iMC4zNSIgc3RvcC1jb2xvcj0iIzg0ODY4OCIgLz48c3RvcCBvZmZzZXQ9IjAuNiIgc3RvcC1jb2xvcj0iIzZlNzA3MSIgLz48c3RvcCBvZmZzZXQ9IjAuOTEiIHN0b3AtY29sb3I9IiM0YTRiNGMiIC8+PHN0b3Agb2Zmc2V0PSIxIiBzdG9wLWNvbG9yPSIjM2UzZjNmIiAvPjwvcmFkaWFsR3JhZGllbnQ+PC9kZWZzPjx0aXRsZT5JY29uLW1hbmFnZS0zMTc8L3RpdGxlPjxlbGxpcHNlIGN4PSI5IiBjeT0iOSIgcng9IjguNSIgcnk9IjguNDciIGZpbGw9InVybCgjYWM4YjMyZGEtMzBjYS00YjkyLThkMGYtOGQyZDVlZjI3OGEwKSIgLz48ZWxsaXBzZSBjeD0iOSIgY3k9IjkiIHJ4PSI3LjQiIHJ5PSI3LjM3IiBmaWxsPSIjZmZmIiAvPjxwYXRoIGQ9Ik0yLjcyLDkuNDRhNi4yNCw2LjI0LDAsMCwwLDEuODIsNGwyLTJhMy41MywzLjUzLDAsMCwxLTEtMloiIGZpbGw9IiM5Y2ViZmYiIC8+PHBhdGggZD0iTTEzLjEzLDQuMjdBNi4yNSw2LjI1LDAsMCwwLDkuNDQsMi43NFY1LjUzYTMuNDEsMy40MSwwLDAsMSwxLjcxLjdaIiBmaWxsPSIjMzJiZWRkIiAvPjxwYXRoIGQ9Ik00Ljg3LDQuMjdsMiwyYTMuNDEsMy40MSwwLDAsMSwxLjcxLS43VjIuNzRBNi4yNSw2LjI1LDAsMCwwLDQuODcsNC4yN1oiIGZpbGw9IiMzMmJlZGQiIC8+PHBhdGggZD0iTTExLjc4LDYuODVhMy42LDMuNiwwLDAsMSwuNzEsMS43MWgyLjc5YTYuMTYsNi4xNiwwLDAsMC0xLjUzLTMuNjdaIiBmaWxsPSIjMzJiZWRkIiAvPjxwYXRoIGQ9Ik02LjIyLDYuODVsLTItMkE2LjE2LDYuMTYsMCwwLDAsMi43Miw4LjU2SDUuNTFBMy42LDMuNiwwLDAsMSw2LjIyLDYuODVaIiBmaWxsPSIjNTBlNmZmIiAvPjxwYXRoIGQ9Ik0xNC4xNCw3YS40NS40NSwwLDAsMC0uNTctLjI1TDkuNDUsOC40MWwuMzIuODEsNC4xMi0xLjYzQS40NC40NCwwLDAsMCwxNC4xNCw3WiIgZmlsbD0iI2YwNDA0OSIgLz48ZWxsaXBzZSBjeD0iOSIgY3k9IjkiIHJ4PSIxLjIiIHJ5PSIxLjIiIGZpbGw9InVybCgjYTk5NTQ4MjAtY2IzOC00OTQzLTk4NDItZjBhNTY4ZDJiMDE1KSIgLz48L3N2Zz4=;verticalAlign=top;labelPosition=center;verticalLabelPosition=bottom;align=center;fontStyle=5;labelBackgroundColor=default;" parent="1" vertex="1">
          <mxGeometry x="60" y="200" width="50" height="50" as="geometry" />
        </mxCell>
        <mxCell id="J6pMH1p_7KSv0R4gjlsr-49" value="Application Insights" style="shape=image;aspect=fixed;image=data:image/svg+xml,PHN2ZyBpZD0iYjZmNmQ5OWUtZjMzMC00ODFkLTgzNmYtZWE1OGNjNDIyMTdmIiB4bWxucz0iaHR0cDovL3d3dy53My5vcmcvMjAwMC9zdmciIHdpZHRoPSIxOCIgaGVpZ2h0PSIxOCIgdmlld0JveD0iMCAwIDE4IDE4Ij48ZGVmcz48cmFkaWFsR3JhZGllbnQgaWQ9ImE3YTFjNDMxLTZjNmQtNGE4Zi05YTY5LThkYTQzN2U1YjBjNSIgY3g9IjkiIGN5PSI3LjM1IiByPSI2LjQyIiBncmFkaWVudFVuaXRzPSJ1c2VyU3BhY2VPblVzZSI+PHN0b3Agb2Zmc2V0PSIwIiBzdG9wLWNvbG9yPSIjYjc3YWY0IiAvPjxzdG9wIG9mZnNldD0iMC4yMSIgc3RvcC1jb2xvcj0iI2IzNzhmMiIgLz48c3RvcCBvZmZzZXQ9IjAuNDMiIHN0b3AtY29sb3I9IiNhNjcyZWQiIC8+PHN0b3Agb2Zmc2V0PSIwLjY1IiBzdG9wLWNvbG9yPSIjOTI2N2U0IiAvPjxzdG9wIG9mZnNldD0iMC44OCIgc3RvcC1jb2xvcj0iIzc1NTlkOCIgLz48c3RvcCBvZmZzZXQ9IjEiIHN0b3AtY29sb3I9IiM2MjRmZDAiIC8+PC9yYWRpYWxHcmFkaWVudD48bGluZWFyR3JhZGllbnQgaWQ9ImVjMGM0ZjBkLTVjOGUtNDg4Mi05NmExLTg5ZDYxODA4ZWI0OSIgeDE9IjkuMDIiIHkxPSIzLjkxIiB4Mj0iOS4wOCIgeTI9IjExLjQ5IiBncmFkaWVudFVuaXRzPSJ1c2VyU3BhY2VPblVzZSI+PHN0b3Agb2Zmc2V0PSIwIiBzdG9wLWNvbG9yPSIjZjJmMmYyIiAvPjxzdG9wIG9mZnNldD0iMC4yMyIgc3RvcC1jb2xvcj0iI2YxZjFmMiIgc3RvcC1vcGFjaXR5PSIwLjk5IiAvPjxzdG9wIG9mZnNldD0iMC4zNyIgc3RvcC1jb2xvcj0iI2VkZWRmMSIgc3RvcC1vcGFjaXR5PSIwLjk1IiAvPjxzdG9wIG9mZnNldD0iMC40OCIgc3RvcC1jb2xvcj0iI2U3ZTVmMCIgc3RvcC1vcGFjaXR5PSIwLjg5IiAvPjxzdG9wIG9mZnNldD0iMC41OCIgc3RvcC1jb2xvcj0iI2RlZGJlZSIgc3RvcC1vcGFjaXR5PSIwLjgxIiAvPjxzdG9wIG9mZnNldD0iMC42NyIgc3RvcC1jb2xvcj0iI2QzY2VlYiIgc3RvcC1vcGFjaXR5PSIwLjciIC8+PHN0b3Agb2Zmc2V0PSIwLjc2IiBzdG9wLWNvbG9yPSIjYzRiZWU4IiBzdG9wLW9wYWNpdHk9IjAuNTciIC8+PHN0b3Agb2Zmc2V0PSIwLjg0IiBzdG9wLWNvbG9yPSIjYjRhYmU1IiBzdG9wLW9wYWNpdHk9IjAuNDEiIC8+PHN0b3Agb2Zmc2V0PSIwLjkyIiBzdG9wLWNvbG9yPSIjYTA5NWUxIiBzdG9wLW9wYWNpdHk9IjAuMjIiIC8+PHN0b3Agb2Zmc2V0PSIwLjk5IiBzdG9wLWNvbG9yPSIjOGI3ZGRjIiBzdG9wLW9wYWNpdHk9IjAuMDIiIC8+PHN0b3Agb2Zmc2V0PSIxIiBzdG9wLWNvbG9yPSIjODk3YmRjIiBzdG9wLW9wYWNpdHk9IjAiIC8+PC9saW5lYXJHcmFkaWVudD48L2RlZnM+PHRpdGxlPkljb24tbWFuYWdlLTMxMDwvdGl0bGU+PHBhdGggZD0iTTEwLjIzLDE3LjM5bC44MS0uODdWMTQuMkg3djIuMzJsLjgxLjg3QS4zMi4zMiwwLDAsMCw4LDE3LjVoMkEuMzIuMzIsMCwwLDAsMTAuMjMsMTcuMzlaIiBmaWxsPSIjY2VjZWNlIiAvPjxwYXRoIGQ9Ik05LC41QTUuODksNS44OSwwLDAsMCwzLjA5LDcuMDdjLjI3LDIuNDcsMi42MiwzLjYyLDMuMjksNi43NWEuNDkuNDksMCwwLDAsLjQ3LjM4aDQuM2EuNDkuNDksMCwwLDAsLjQ3LS4zOGMuNjctMy4xMywzLTQuMjgsMy4yOS02Ljc1QTUuODksNS44OSwwLDAsMCw5LC41Wk03LDE0LjIiIGZpbGw9InVybCgjYTdhMWM0MzEtNmM2ZC00YThmLTlhNjktOGRhNDM3ZTViMGM1KSIgLz48cGF0aCBkPSJNMTEuNDYsMy43OWExLjQsMS40LDAsMCwwLTEuMzUsMS40NFY2SDhWNS4yM0ExLjQxLDEuNDEsMCwwLDAsNi41OSwzLjc5LDEuNCwxLjQsMCwwLDAsNS4yNCw1LjIzLDEuNDEsMS40MSwwLDAsMCw2LjU5LDYuNjhoLjY0djZhLjM2LjM2LDAsMCwwLC43Miwwdi02aDIuMTZ2NmEuMzYuMzYsMCwxLDAsLjcyLDB2LTZoLjYzYTEuNCwxLjQsMCwwLDAsMS4zNS0xLjQ1QTEuNCwxLjQsMCwwLDAsMTEuNDYsMy43OVpNNy4yMyw2SDYuNTVhLjc0Ljc0LDAsMCwxLS42OC0uNzcuNzQuNzQsMCwwLDEsLjY4LS43Ny43NC43NCwwLDAsMSwuNjguNzdabTQuMjgsMGgtLjY4VjUuMTlhLjY4LjY4LDAsMSwxLDEuMzUsMEEuNzMuNzMsMCwwLDEsMTEuNTEsNloiIGZpbGw9InVybCgjZWMwYzRmMGQtNWM4ZS00ODgyLTk2YTEtODlkNjE4MDhlYjQ5KSIgLz48cG9seWdvbiBwb2ludHM9IjYuOTYgMTUuOCAxMS4wNCAxNS4wMSAxMS4wNCAxNC41NiA2Ljk2IDE1LjM2IDYuOTYgMTUuOCIgZmlsbD0iIzk5OSIgLz48cG9seWdvbiBwb2ludHM9IjExLjA0IDE2LjExIDExLjA0IDE1LjY3IDYuOTYgMTYuNDggNi45NiAxNi41MiA3LjI3IDE2Ljg2IDExLjA0IDE2LjExIiBmaWxsPSIjOTk5IiAvPjwvc3ZnPg==;verticalAlign=top;labelPosition=center;verticalLabelPosition=bottom;align=center;fontStyle=5;labelBackgroundColor=default;" parent="1" vertex="1">
          <mxGeometry x="350" y="250" width="50" height="50" as="geometry" />
        </mxCell>
        <mxCell id="J6pMH1p_7KSv0R4gjlsr-50" value="Metrics" style="shape=image;aspect=fixed;image=data:image/svg+xml,PHN2ZyBpZD0iYjRhOWI1MDctZjA4MC00ZGZhLWFlNWItZDgyNWUxMzJhMjZiIiB4bWxucz0iaHR0cDovL3d3dy53My5vcmcvMjAwMC9zdmciIHdpZHRoPSIxOCIgaGVpZ2h0PSIxOCIgdmlld0JveD0iMCAwIDE4IDE4Ij48ZGVmcz48bGluZWFyR3JhZGllbnQgaWQ9ImUxZDczZjQ3LTc1MmEtNDE1OS05ODQxLWYwZTI5OGRiODUyMiIgeDE9IjYuNTciIHkxPSI3LjA2IiB4Mj0iNi41NyIgeTI9IjMuNzYiIGdyYWRpZW50VW5pdHM9InVzZXJTcGFjZU9uVXNlIj48c3RvcCBvZmZzZXQ9IjAiIHN0b3AtY29sb3I9IiM3NzNhZGMiIC8+PHN0b3Agb2Zmc2V0PSIxIiBzdG9wLWNvbG9yPSIjYjc3YWY0IiAvPjwvbGluZWFyR3JhZGllbnQ+PGxpbmVhckdyYWRpZW50IGlkPSJlOGM2NDQwYS0yNzAxLTQ1MDctOGQwNC1jNWRlZGQxOGJjZjIiIHgxPSIxMS4wMiIgeTE9IjExLjE1IiB4Mj0iMTEuMDIiIHkyPSI3Ljg2IiBncmFkaWVudFVuaXRzPSJ1c2VyU3BhY2VPblVzZSI+PHN0b3Agb2Zmc2V0PSIwIiBzdG9wLWNvbG9yPSIjNzczYWRjIiAvPjxzdG9wIG9mZnNldD0iMSIgc3RvcC1jb2xvcj0iI2I3N2FmNCIgLz48L2xpbmVhckdyYWRpZW50PjxsaW5lYXJHcmFkaWVudCBpZD0iYjQwMzg1YzYtNTIyYy00YjdkLWFmYTAtYzgyMTZmMzE0YmRmIiB4MT0iMTUuMTUiIHkxPSIzLjc5IiB4Mj0iMTUuMTUiIHkyPSIwLjUiIGdyYWRpZW50VW5pdHM9InVzZXJTcGFjZU9uVXNlIj48c3RvcCBvZmZzZXQ9IjAiIHN0b3AtY29sb3I9IiM3NzNhZGMiIC8+PHN0b3Agb2Zmc2V0PSIxIiBzdG9wLWNvbG9yPSIjYjc3YWY0IiAvPjwvbGluZWFyR3JhZGllbnQ+PGxpbmVhckdyYWRpZW50IGlkPSJhNWM5ZDFlNy0zM2ZiLTQzNTMtYjRiZC01ZDM3MzJhNTQ2MzQiIHgxPSIyLjg1IiB5MT0iMTEuODYiIHgyPSIyLjg1IiB5Mj0iOC41NyIgZ3JhZGllbnRVbml0cz0idXNlclNwYWNlT25Vc2UiPjxzdG9wIG9mZnNldD0iMCIgc3RvcC1jb2xvcj0iIzc3M2FkYyIgLz48c3RvcCBvZmZzZXQ9IjEiIHN0b3AtY29sb3I9IiNiNzdhZjQiIC8+PC9saW5lYXJHcmFkaWVudD48L2RlZnM+PHRpdGxlPkljb24tbWFuYWdlLTMxOTwvdGl0bGU+PHBvbHlnb24gcG9pbnRzPSIxNC43MyAxLjYyIDEwLjc0IDguNzIgNi41MiA0LjQyIDIuMTcgMTAuMDYgMy4xOSAxMC44NiA2LjY0IDYuNDEgMTEuMDIgMTAuODggMTUuODYgMi4yNyAxNC43MyAxLjYyIiBmaWxsPSIjYjc5NmY5IiAvPjxlbGxpcHNlIGN4PSI2LjU3IiBjeT0iNS40MSIgcng9IjEuNjQiIHJ5PSIxLjY1IiBmaWxsPSJ1cmwoI2UxZDczZjQ3LTc1MmEtNDE1OS05ODQxLWYwZTI5OGRiODUyMikiIC8+PGVsbGlwc2UgY3g9IjExLjAyIiBjeT0iOS41IiByeD0iMS42NCIgcnk9IjEuNjUiIGZpbGw9InVybCgjZThjNjQ0MGEtMjcwMS00NTA3LThkMDQtYzVkZWRkMThiY2YyKSIgLz48ZWxsaXBzZSBjeD0iMTUuMTUiIGN5PSIyLjE1IiByeD0iMS42NCIgcnk9IjEuNjUiIGZpbGw9InVybCgjYjQwMzg1YzYtNTIyYy00YjdkLWFmYTAtYzgyMTZmMzE0YmRmKSIgLz48ZWxsaXBzZSBjeD0iMi44NSIgY3k9IjEwLjIyIiByeD0iMS42NCIgcnk9IjEuNjUiIGZpbGw9InVybCgjYTVjOWQxZTctMzNmYi00MzUzLWI0YmQtNWQzNzMyYTU0NjM0KSIgLz48cmVjdCB4PSI1LjY3IiB5PSI5LjkyIiB3aWR0aD0iMi41OCIgaGVpZ2h0PSI3LjU4IiByeD0iMC4yOCIgZmlsbD0iIzAwNzhkNCIgLz48cmVjdCB4PSI5Ljc4IiB5PSIxMi41NCIgd2lkdGg9IjIuNTgiIGhlaWdodD0iNC45NiIgcng9IjAuMjgiIGZpbGw9IiMwMDViYTEiIC8+PHJlY3QgeD0iMTMuODkiIHk9IjcuMzgiIHdpZHRoPSIyLjU4IiBoZWlnaHQ9IjEwLjEyIiByeD0iMC4yOCIgZmlsbD0iIzAwNWJhMSIgLz48cmVjdCB4PSIxLjU2IiB5PSIxMi41NCIgd2lkdGg9IjIuNTgiIGhlaWdodD0iNC45NiIgcng9IjAuMjgiIGZpbGw9IiM1ZWEwZWYiIC8+PC9zdmc+;verticalAlign=top;labelPosition=center;verticalLabelPosition=bottom;align=center;fontStyle=5;labelBackgroundColor=default;" parent="1" vertex="1">
          <mxGeometry x="150" y="250" width="50" height="50" as="geometry" />
        </mxCell>
        <mxCell id="J6pMH1p_7KSv0R4gjlsr-53" value="Service Health" style="shape=image;aspect=fixed;image=data:image/svg+xml,PHN2ZyBpZD0iZTZhZjY3MzUtYmQzZi00NGMyLTkxMGUtNGI4YjIyOGYzMzM2IiB4bWxucz0iaHR0cDovL3d3dy53My5vcmcvMjAwMC9zdmciIHdpZHRoPSIxOCIgaGVpZ2h0PSIxOCIgdmlld0JveD0iMCAwIDE4IDE4Ij48ZGVmcz48bGluZWFyR3JhZGllbnQgaWQ9ImY1ZTU1M2ZhLTc1NmEtNDAyOC1hYmE1LTcxOTU1NWY1ZDY5MyIgeDE9IjguNjYiIHkxPSIxNy4xMiIgeDI9IjguNjYiIHkyPSIxLjAzIiBncmFkaWVudFVuaXRzPSJ1c2VyU3BhY2VPblVzZSI+PHN0b3Agb2Zmc2V0PSIwIiBzdG9wLWNvbG9yPSIjMTk4OGQ5IiAvPjxzdG9wIG9mZnNldD0iMC4yMiIgc3RvcC1jb2xvcj0iIzIxOGRkYyIgLz48c3RvcCBvZmZzZXQ9IjAuNTYiIHN0b3AtY29sb3I9IiMzNzljZTUiIC8+PHN0b3Agb2Zmc2V0PSIwLjkiIHN0b3AtY29sb3I9IiM1NGFlZjAiIC8+PC9saW5lYXJHcmFkaWVudD48L2RlZnM+PHRpdGxlPkljb24tZ2VuZXJhbC00PC90aXRsZT48cGF0aCBkPSJNOC42NiwxNy4xMmM4LjE4LTUuODYsOC40Ni05LjI4LDguNDktMTAuMzVDMTcuMiw1LjI3LDE3LDEuMzYsMTMsMS4wNUE0LjI2LDQuMjYsMCwwLDAsOC42NiwzLjksNC4yOCw0LjI4LDAsMCwwLDQuMjcsMS4wNUMuMzIsMS4zNi4xMSw1LjI3LjE2LDYuNzdjMCwxLjA3LjMyLDQuNDksOC41LDEwLjM1IiBmaWxsPSJ1cmwoI2Y1ZTU1M2ZhLTc1NmEtNDAyOC1hYmE1LTcxOTU1NWY1ZDY5MykiIC8+PHBhdGggZD0iTTE3LjE1LDYuNzdDMTcuMiw1LjI3LDE3LDEuMzYsMTMsMS4wNUE0LjI2LDQuMjYsMCwwLDAsOC42NiwzLjksNC4yOCw0LjI4LDAsMCwwLDQuMjcsMS4wNUMuMzIsMS4zNi4xMSw1LjI3LjE2LDYuNzdjMCwxLjA3LjI0LDQuNDQsOC40MywxMC4zIiBmaWxsPSJub25lIiAvPjxwYXRoIGQ9Ik0xNy4xNSw2LjE4aC00YS4xNy4xNywwLDAsMC0uMTMuMDdMMTEuODEsOC4zNGEuMTYuMTYsMCwwLDEtLjI3LDBMOS44MSw1LjA1YS4zMS4zMSwwLDAsMC0uNTYsMEw3LjU5LDEwYS4xNi4xNiwwLDAsMS0uMjksMEw1Ljg4LDYuNzFhLjMxLjMxLDAsMCwwLS41NSwwTDMuMzksMTAuMmEuMTYuMTYsMCwwLDEtLjEzLjA4SDEuNDJhMTMsMTMsMCwwLDAsLjksMS4yMkg0YS4xMy4xMywwLDAsMCwuMTMtLjA4TDUuMzQsOS4xOWEuMTYuMTYsMCwwLDEsLjI4LDBsMS42NiwzLjg2YS4zMS4zMSwwLDAsMCwuNTgsMEw5LjYxLDcuODVhLjE1LjE1LDAsMCwxLC4yOCwwbDEuNDYsMi43N2EuMy4zLDAsMCwwLC41MywwbDEuODYtMy4xM2EuMTYuMTYsMCwwLDEsLjEzLS4wOEgxNy4xIiBmaWxsPSIjZmZmIiAvPjwvc3ZnPg==;verticalAlign=top;labelPosition=center;verticalLabelPosition=bottom;align=center;fontStyle=5;labelBackgroundColor=default;" parent="1" vertex="1">
          <mxGeometry x="475" y="250" width="50" height="50" as="geometry" />
        </mxCell>
        <mxCell id="J6pMH1p_7KSv0R4gjlsr-69" value="AppInsights Dashboard" style="shape=image;aspect=fixed;image=data:image/svg+xml,PHN2ZyB4bWxucz0iaHR0cDovL3d3dy53My5vcmcvMjAwMC9zdmciIHdpZHRoPSIxOCIgaGVpZ2h0PSIxOCIgdmlld0JveD0iMCAwIDE4IDE4Ij48ZGVmcz48bGluZWFyR3JhZGllbnQgaWQ9ImZhYjY2YzllLThhZGUtNGIxNC04NWExLTg5YTNkZDdjZWFlOSIgeDE9IjguMTQxIiB5MT0iMS4wNDgiIHgyPSI4LjE0MSIgeTI9IjEzLjc0MSIgZ3JhZGllbnRVbml0cz0idXNlclNwYWNlT25Vc2UiPjxzdG9wIG9mZnNldD0iMCIgc3RvcC1jb2xvcj0iIzVlYTBlZiIgLz48c3RvcCBvZmZzZXQ9IjEiIHN0b3AtY29sb3I9IiMwMDc4ZDQiIC8+PC9saW5lYXJHcmFkaWVudD48L2RlZnM+PHJlY3QgeT0iMC42MDkiIHdpZHRoPSIxNi4yODIiIGhlaWdodD0iMTMuNjc4IiByeD0iMC43NjEiIGZpbGw9InVybCgjZmFiNjZjOWUtOGFkZS00YjE0LTg1YTEtODlhM2RkN2NlYWU5KSIgLz48ZWxsaXBzZSBjeD0iNi41MjQiIGN5PSI1LjMyOSIgcng9IjEuMTMxIiByeT0iMS4xMzciIGZpbGw9IiNmZmYiIC8+PGVsbGlwc2UgY3g9IjkuNjU5IiBjeT0iNy40NiIgcng9IjEuMTMxIiByeT0iMS4xMzciIGZpbGw9IiNmZmYiIC8+PGVsbGlwc2UgY3g9IjEyLjY5NSIgY3k9IjMuNDIyIiByeD0iMS4xMzEiIHJ5PSIxLjEzNyIgZmlsbD0iI2ZmZiIgLz48ZWxsaXBzZSBjeD0iMy41ODciIGN5PSI5LjUxMSIgcng9IjEuMTMxIiByeT0iMS4xMzciIGZpbGw9IiNmZmYiIC8+PHBvbHlnb24gcG9pbnRzPSIzLjk5NiA5Ljc5OCAzLjE3NyA5LjIyNCA2LjM5OCA0LjY0IDkuNTQ2IDYuNzc4IDEyLjI5NiAzLjEyMiAxMy4wOTUgMy43MjMgOS43NzMgOC4xNDEgNi42NSA2LjAyIDMuOTk2IDkuNzk4IiBmaWxsPSIjZmZmIiAvPjxwYXRoIGQ9Ik02LjkzMSwxNy4wOTJhMS4xNjksMS4xNjksMCwwLDEtMS4xNjgtMS4xNjdjLjItMy44ODksMi41MzktNi4zNjIsNS45NzQtNi4zNjJzNS43OSwyLjQ3Myw1Ljk3NCw2LjNBMS4xNywxLjE3LDAsMCwxLDE2LjYsMTcuMDlsLTkuNjcsMFoiIGZpbGw9IiNmZmYiIC8+PHBhdGggZD0iTTExLjczNyw5Ljg1YzMuNDI3LDAsNS41MiwyLjU0OSw1LjY4Nyw2LjAyOWEuODgxLjg4MSwwLDAsMS0uODM2LjkyNEg2LjkzMWEuODguODgsMCwwLDEtLjg4MS0uODhjMC0uMDE1LDAtLjAzLDAtLjA0NkM2LjIyNywxMi40LDguMzE2LDkuODUsMTEuNzM3LDkuODVtMC0uNTc1Yy0zLjYsMC02LjA1OCwyLjU4MS02LjI2LDYuNTc0di4wNzZhMS40NTgsMS40NTgsMCwwLDAsMS40NTYsMS40NTRoOS42MjZsLjA1OSwwQTEuNDU3LDEuNDU3LDAsMCwwLDE4LDE1Ljg1Yy0uMTg5LTMuOTMyLTIuNzA1LTYuNTc1LTYuMjYxLTYuNTc1WiIgZmlsbD0iIzAwNzhkNCIgLz48cGF0aCBkPSJNMTQuMzY4LDEyLjI3MmEzLjk5MSwzLjk5MSwwLDAsMC0yLjM4Mi0xLjAxNHYxLjg1MWEyLjIyNCwyLjIyNCwwLDAsMSwxLjEwNi40NzJaIiBmaWxsPSIjNTBlNmZmIiAvPjxwYXRoIGQ9Ik05LjA0NCwxMi4yNzJsMS4yNzYsMS4zMDlhMi4yMjQsMi4yMjQsMCwwLDEsMS4xMDYtLjQ3MlYxMS4yNThBMy45OTQsMy45OTQsMCwwLDAsOS4wNDQsMTIuMjcyWiIgZmlsbD0iIzUwZTZmZiIgLz48cGF0aCBkPSJNMTMuNSwxMy45OTNhMi4zNSwyLjM1LDAsMCwxLC40NjIsMS4xMzZoMS44YTQuMjMxLDQuMjMxLDAsMCwwLS45ODctMi40NDVaIiBmaWxsPSIjMzJiZWRkIiAvPjxwYXRoIGQ9Ik05LjkxNywxMy45OTMsOC42NDEsMTIuNjg0YTQuMjIzLDQuMjIzLDAsMCwwLS45ODYsMi40NDVoMS44QTIuMzUyLDIuMzUyLDAsMCwxLDkuOTE3LDEzLjk5M1oiIGZpbGw9IiM1MGU2ZmYiIC8+PHBhdGggZD0iTTE0Ljc3MywxMy41MjZhLjQuNCwwLDAsMC0uMzYzLS4yMzMuMzg4LjM4OCwwLDAsMC0uMTY3LjAzOGwtMi43NzIsMS4zLjMzNC43MjYsMi43NzUtMS4zQS40LjQsMCwwLDAsMTQuNzczLDEzLjUyNloiIGZpbGw9IiNlNjIzMjMiIC8+PGNpcmNsZSBjeD0iMTEuNzM3IiBjeT0iMTQuOTYzIiByPSIwLjk1NCIgZmlsbD0iIzRmNGY0ZiIgLz48L3N2Zz4=;verticalAlign=top;labelPosition=center;verticalLabelPosition=bottom;align=center;fontStyle=5;labelBackgroundColor=default;" parent="1" vertex="1">
          <mxGeometry x="610" y="250" width="50" height="50" as="geometry" />
        </mxCell>
        <mxCell id="J6pMH1p_7KSv0R4gjlsr-81" value="Alerts" style="shape=image;aspect=fixed;image=data:image/svg+xml,PHN2ZyBpZD0iYTlmNTZiNGUtMmE1MS00NDcxLTk0ODgtZDQ2MTQwOGFlNGViIiB4bWxucz0iaHR0cDovL3d3dy53My5vcmcvMjAwMC9zdmciIHdpZHRoPSIxOCIgaGVpZ2h0PSIxOCIgdmlld0JveD0iMCAwIDE4IDE4Ij48ZGVmcz48bGluZWFyR3JhZGllbnQgaWQ9ImU0ZTFlNDk0LTIxZjEtNGU5Yy1hNmZhLTA5OTNlZmZmMDhkMyIgeDE9IjkiIHkxPSIxNy4yIiB4Mj0iOSIgeTI9Ii0zLjI4IiBncmFkaWVudFVuaXRzPSJ1c2VyU3BhY2VPblVzZSI+PHN0b3Agb2Zmc2V0PSIwIiBzdG9wLWNvbG9yPSIjNWU5NjI0IiAvPjxzdG9wIG9mZnNldD0iMC4xOCIgc3RvcC1jb2xvcj0iIzYyOWMyNSIgLz48c3RvcCBvZmZzZXQ9IjAuNDQiIHN0b3AtY29sb3I9IiM2ZGFlMmEiIC8+PHN0b3Agb2Zmc2V0PSIwLjczIiBzdG9wLWNvbG9yPSIjN2ZjYjMwIiAvPjxzdG9wIG9mZnNldD0iMC44MiIgc3RvcC1jb2xvcj0iIzg2ZDYzMyIgLz48L2xpbmVhckdyYWRpZW50PjwvZGVmcz48Zz48cGF0aCBkPSJNMTcuNSwyLjVWMTMuMzNhLjU4LjU4LDAsMCwxLS41OC41OEgxMi40YS4xNS4xNSwwLDAsMC0uMTUuMTRWMTUuOGEuMjguMjgsMCwwLDEtLjQ1LjIzTDkuMDgsMTMuOTRsLS4wOSwwSDEuMDhhLjU4LjU4LDAsMCwxLS41OC0uNThWMi41YS41OC41OCwwLDAsMSwuNTgtLjU5SDE2LjkyQS41OC41OCwwLDAsMSwxNy41LDIuNVoiIGZpbGw9InVybCgjZTRlMWU0OTQtMjFmMS00ZTljLWE2ZmEtMDk5M2VmZmYwOGQzKSIgLz48cGF0aCBkPSJNOS41NCw5LjYzSDguMzhBLjM2LjM2LDAsMCwxLDgsOS4yOUw3LjgsMy40M2EuMzUuMzUsMCwwLDEsLjM1LS4zNmgxLjdhLjM1LjM1LDAsMCwxLC4zNS4zN0w5Ljg5LDkuM0EuMzUuMzUsMCwwLDEsOS41NCw5LjYzWiIgZmlsbD0iI2ZmZiIgLz48cmVjdCB4PSI4LjEzIiB5PSIxMC42MiIgd2lkdGg9IjEuNjkiIGhlaWdodD0iMS42OSIgcng9IjAuNjEiIGZpbGw9IiNmZmYiIC8+PC9nPjwvc3ZnPg==;verticalAlign=top;labelPosition=center;verticalLabelPosition=bottom;align=center;fontStyle=5;labelBackgroundColor=default;" parent="1" vertex="1">
          <mxGeometry x="240" y="250" width="50" height="50" as="geometry" />
        </mxCell>
        <mxCell id="J6pMH1p_7KSv0R4gjlsr-41" value="BACK END" style="rounded=0;whiteSpace=wrap;html=1;dashed=1;labelBackgroundColor=default;sketch=1;fillStyle=solid;strokeColor=#660033;fontColor=#000000;fillColor=#9999FF;opacity=10;strokeWidth=3;fontSize=14;verticalAlign=bottom;labelPosition=center;verticalLabelPosition=top;align=center;fontStyle=1" parent="1" vertex="1">
          <mxGeometry x="560" y="440" width="480" height="840" as="geometry" />
        </mxCell>
        <mxCell id="r9mk5RFWZT2YGMJUsQV9-5" value="" style="group" parent="1" vertex="1" connectable="0">
          <mxGeometry x="661.71" y="960" width="320" height="254.5" as="geometry" />
        </mxCell>
        <mxCell id="J6pMH1p_7KSv0R4gjlsr-46" value="" style="shape=image;aspect=fixed;image=data:image/svg+xml,PHN2ZyB4bWxucz0iaHR0cDovL3d3dy53My5vcmcvMjAwMC9zdmciIHZpZXdCb3g9IjAgMCAxMjggMTI4Ij48cGF0aCBmaWxsPSIjOUI0Rjk2IiBkPSJNMTE1LjQgMzAuN0w2Ny4xIDIuOWMtLjgtLjUtMS45LS43LTMuMS0uNy0xLjIgMC0yLjMuMy0zLjEuN2wtNDggMjcuOWMtMS43IDEtMi45IDMuNS0yLjkgNS40djU1LjdjMCAxLjEuMiAyLjQgMSAzLjVsMTA2LjgtNjJjLS42LTEuMi0xLjUtMi4xLTIuNC0yLjd6Ii8+PHBhdGggZmlsbD0iIzY4MjE3QSIgZD0iTTEwLjcgOTUuM2MuNS44IDEuMiAxLjUgMS45IDEuOWw0OC4yIDI3LjljLjguNSAxLjkuNyAzLjEuNyAxLjIgMCAyLjMtLjMgMy4xLS43bDQ4LTI3LjljMS43LTEgMi45LTMuNSAyLjktNS40VjM2LjFjMC0uOS0uMS0xLjktLjYtMi44bC0xMDYuNiA2MnoiLz48cGF0aCBmaWxsPSIjZmZmIiBkPSJNODUuMyA3Ni4xQzgxLjEgODMuNSA3My4xIDg4LjUgNjQgODguNWMtMTMuNSAwLTI0LjUtMTEtMjQuNS0yNC41czExLTI0LjUgMjQuNS0yNC41YzkuMSAwIDE3LjEgNSAyMS4zIDEyLjVsMTMtNy41Yy02LjgtMTEuOS0xOS42LTIwLTM0LjMtMjAtMjEuOCAwLTM5LjUgMTcuNy0zOS41IDM5LjVzMTcuNyAzOS41IDM5LjUgMzkuNWMxNC42IDAgMjcuNC04IDM0LjItMTkuOGwtMTIuOS03LjZ6TTk3IDY2LjJsLjktNC4zaC00LjJ2LTQuN2g1LjFMMTAwIDUxaDQuOWwtMS4yIDYuMWgzLjhsMS4yLTYuMWg0LjhsLTEuMiA2LjFoMi40djQuN2gtMy4zbC0uOSA0LjNoNC4ydjQuN2gtNS4xbC0xLjIgNmgtNC45bDEuMi02aC0zLjhsLTEuMiA2aC00LjhsMS4yLTZoLTIuNHYtNC43SDk3em00LjggMGgzLjhsLjktNC4zaC0zLjhsLS45IDQuM3oiLz48L3N2Zz4=;" parent="r9mk5RFWZT2YGMJUsQV9-5" vertex="1">
          <mxGeometry x="40" width="30" height="30" as="geometry" />
        </mxCell>
        <mxCell id="jxoymsFl4kqGbWP8mDqd-22" value="Image Search API" style="rounded=0;whiteSpace=wrap;html=1;labelBackgroundColor=none;sketch=1;strokeColor=#000000;strokeWidth=1;fontColor=#000000;fillColor=#FFFF99;verticalAlign=bottom;labelPosition=center;verticalLabelPosition=top;align=center;" parent="r9mk5RFWZT2YGMJUsQV9-5" vertex="1">
          <mxGeometry y="14.5" width="320" height="240" as="geometry" />
        </mxCell>
        <mxCell id="jxoymsFl4kqGbWP8mDqd-55" value="Storage Account" style="sketch=0;aspect=fixed;html=1;points=[];align=center;image;fontSize=12;image=img/lib/mscae/BlobBlock.svg;rounded=0;shadow=0;glass=0;dashed=1;labelBackgroundColor=default;strokeColor=#000000;strokeWidth=3;fontColor=#000000;fillColor=#FFCCFF;fontStyle=5" parent="r9mk5RFWZT2YGMJUsQV9-5" vertex="1">
          <mxGeometry x="202" y="146.5" width="50" height="42" as="geometry" />
        </mxCell>
        <mxCell id="jxoymsFl4kqGbWP8mDqd-60" style="edgeStyle=none;rounded=0;sketch=1;orthogonalLoop=1;jettySize=auto;html=1;entryX=0.006;entryY=0.524;entryDx=0;entryDy=0;entryPerimeter=0;strokeColor=#FF3399;strokeWidth=1;fontSize=15;fontColor=#000000;startArrow=none;startFill=0;endArrow=classic;endFill=1;" parent="r9mk5RFWZT2YGMJUsQV9-5" source="jxoymsFl4kqGbWP8mDqd-56" target="jxoymsFl4kqGbWP8mDqd-55" edge="1">
          <mxGeometry relative="1" as="geometry" />
        </mxCell>
        <mxCell id="jxoymsFl4kqGbWP8mDqd-56" value="Cognitive Service&lt;br&gt;(Computer Vision)" style="aspect=fixed;html=1;points=[];align=center;image;fontSize=12;image=img/lib/azure2/ai_machine_learning/Cognitive_Services.svg;rounded=0;shadow=0;glass=0;dashed=1;labelBackgroundColor=default;sketch=0;strokeColor=#000000;strokeWidth=3;fontColor=#000000;fillColor=#FFCCFF;fontStyle=5" parent="r9mk5RFWZT2YGMJUsQV9-5" vertex="1">
          <mxGeometry x="40" y="144.5" width="68" height="48" as="geometry" />
        </mxCell>
        <mxCell id="J6pMH1p_7KSv0R4gjlsr-43" value="" style="shape=image;aspect=fixed;image=data:image/svg+xml,PHN2ZyB4bWxucz0iaHR0cDovL3d3dy53My5vcmcvMjAwMC9zdmciIHZpZXdCb3g9IjAgMCAxMjggMTI4Ij48ZyBmaWxsPSIjNjIzNjk3Ij48cGF0aCBkPSJNNjEuMTk1IDBoNC45NTNjMTIuOTE4LjUzNSAyNS42ODggNC44OSAzNi4wNDMgMTIuNjc2IDkuODA5IDcuMjg5IDE3LjQ3MyAxNy40MzcgMjEuNzI3IDI4LjkwNiAyLjQ0MSA2LjM4NyAzLjY2NCAxMy4xOCA0LjA4MiAxOS45OTJ2NC4yMTFjLS40MTQgMTEuMjkzLTMuNjY0IDIyLjUyLTkuNzMgMzIuMDgyLTYuODAxIDEwLjg5NS0xNi45MjIgMTkuNzMtMjguNzI3IDI0LjgyOEE2NC4zOTkgNjQuMzk5IDAgMDE2NS4wODIgMTI4aC0yLjE0NGMtMTEuNzM1LS4xOTEtMjMuNDEtMy42Ni0zMy4yOTctOS45OTItMTEuMTk2LTcuMTEzLTIwLjExNC0xNy43ODUtMjUuMDI4LTMwLjExN0MxLjg5MSA4MS4xOS40NDEgNzQuMDIgMCA2Ni44MTJ2LTQuOTU3Yy41MDQtMTQuMzkgNS45NTMtMjguNjA5IDE1LjQxLTM5LjQ5NkMyMy4xNjggMTMuMzEgMzMuNSA2LjQ4IDQ0Ljg4NyAyLjkzNyA1MC4xNzIgMS4yNyA1NS42NzYuNDEgNjEuMTk1IDBNMjUuMTkxIDM3LjUyM2MtLjAzIDEyLjE1My0uMDExIDI0LjMwNS0uMDExIDM2LjQ1NCAxLjQzLjAxMSAyLjg2LjAxMSA0LjI5My4wMTEtLjA3NS0xMC40MzMuMTAxLTIwLjg2My0uMTA2LTMxLjI5My40OC45MDcuOTE4IDEuODQgMS40NjUgMi43MDdDMzcuMDM1IDU0LjkxIDQzLjEwNSA2NC41IDQ5LjMwOSA3NGMxLjczOC0uMDIzIDMuNDc2LS4wMjMgNS4yMTQuMDA0LS4wMDMtMTIuMTYtLjAwNy0yNC4zMi4wMDQtMzYuNDhhMzA4LjA3NiAzMDguMDc2IDAgMDAtNC4yNS0uMDEyYy4wNzUgMTAuMzItLjEzNiAyMC42NC4xMjUgMzAuOTQ5LTYuNTA3LTEwLjM1Mi0xMy4xMDEtMjAuNjQ1LTE5LjY5NS0zMC45NDVhMzcwLjg1IDM3MC44NSAwIDAwLTUuNTE2LjAwN20zOC44NDQtLjAxMWMtLjEyOSAxMi4xNi0uMDA0IDI0LjMyLS4wNDcgMzYuNDc2IDYuNDY5LS4wMTUgMTIuOTM4LjAyNCAxOS40MS0uMDJhODMuMzYgODMuMzYgMCAwMS4wMjQtMy45NTJjLTUuMDEyLS4wMTYtMTAuMDI3LjAwNy0xNS4wNDMtLjAyLS4wNzQtNC4yMS0uMDA0LTguNDI2LS4wNC0xMi42MzcgNC4zOTUtLjA3OCA4Ljc5LjAxMiAxMy4xOC0uMDQ3LS4wMTEtMS4yNzctLjAxMS0yLjU1NC0uMDE5LTMuODMyLTQuMzg3LjE0MS04Ljc3My0uMDU0LTEzLjE2NC4wMTIuMDEyLTQuMDIzLjAyLTguMDUuMDItMTIuMDc4IDQuNjk5IDAgOS4zOTgtLjAyIDE0LjA5My4wMTItLjAwOC0xLjMwMSAwLTIuNjA2LjAxNi0zLjkwNi02LjE0NS0uMDE2LTEyLjI5LS4wMDgtMTguNDMtLjAwOG0yMi42MDIuMDU0Yy4wMDQgMS4yNjYuMDA0IDIuNTI4LjAwOCAzLjc5IDMuNDg4LS4wNCA2Ljk3Mi4xMDkgMTAuNDYuMDM1LS4wMjMgMTAuODYzLjAwNCAyMS43MTgtLjAxMSAzMi41NzQgMS40Ni4wNDMgMi45My4wMzUgNC4zOS0uMDktLjEyLTUuOTkyLjExOC0xMS45ODgtLjE1Ni0xNy45NzcuMDY3LTIuNjk5LS4wNy01LjM5NC4xMTctOC4wOS4xMDYtMi4xNC0uMjc3LTQuMjc3LS4wMzUtNi40MTcgMy41MTYuMDQ3IDcuMDM1LjAxNSAxMC41NS4wMTVhNTkuNzc0IDU5Ljc3NCAwIDAxLjA3NS0zLjgzMmMtOC40NjktLjEwNS0xNi45MzctLjA5NC0yNS4zOTgtLjAwOE0xMy41NSA2OS4wOTRjLTEuOTc3LjkxLTIuMTA2IDQuMDIzLS4xNDkgNS4wMjcgMS43MiAxLjE4IDQuMzA1LS4zNzEgNC4yMjctMi40MS4xMzMtMi4wMDQtMi4yOS0zLjY4OC00LjA3OC0yLjYxN20yOS4yMyAxNS4yODljLTQuMjc3IDMuNDY5LTQuMjI2IDExLjE5NS41IDE0LjI1IDIuNjY4IDEuNjk1IDYuMTAyIDEuMzQ0IDguOTIyLjIxNS4wMTItLjYyMS4wMjctMS4yMzkuMDUtMS44Ni0yLjY3MSAxLjM5NS02LjQxIDEuNjgtOC42NzUtLjYxLTIuOTY1LTMuMjM3LTIuMjk3LTkuMjY5IDEuNjEzLTExLjQ3NiAyLjIxMS0xLjE2NCA0LjkwNy0uODI0IDcuMDg2LjIzOS0uMDA3LS42Ni0uMDA0LTEuMzIgMC0xLjk4LTMuMDk3LTEuMDk5LTYuOTIyLTEuMDQtOS40OTYgMS4yMjJtMTcuMjA3IDIuNzFjLTEuODkuMjItMy43NTggMS4yMi00LjYzMyAyLjk2Ni0xLjI1MyAyLjQ5Ni0xLjEwOSA1Ljg2Ny44NjQgNy45NiAyLjAzNSAyLjI5NyA1Ljk0NSAyLjMyIDguMTguMjk3IDIuNDI1LTIuMzA4IDIuNjk5LTYuNDY4Ljc1Ny05LjE2NC0xLjE0OC0xLjYyOS0zLjI3My0yLjE4My01LjE2OC0yLjA1OG0xNy44ODcgMi43MjJjLTEuNjYgMi44ODMtMS4zMzIgNy4yNSAxLjU5OCA5LjIxMSAyLjE4MyAxLjIyIDQuOTMzLjgzMiA3LjA3NC0uMzA4LS4wMDQtLjYxNy4wMDQtMS4yMzUuMDMxLTEuODQ4LTEuNjg3IDEuMDctMy45MzcgMS44NTYtNS44MTIuNzc3LTEuMzA5LS43MjItMS43MDQtMi4yNTctMS45MTQtMy42MjUgMi44NzUtLjAzOSA1Ljc0Ni0uMDgyIDguNjI1LS4wNzQtLjA3NS0xLjgyOC0uMTE4LTMuODk0LTEuNDUtNS4zMDgtMi4xOTktMi40My02LjY0NC0xLjY1Ny04LjE1MiAxLjE3NW0tOC40MTQtMi4zMzZ2MTIuMDA4Yy42NTIgMCAxLjMxMiAwIDEuOTczLjAwNC4wMjMtMi4xOTUtLjA0LTQuMzk0LjAyMy02LjU5NC4wMTYtMS4yNy41MjctMi41NTggMS40ODQtMy40MTQuODAxLS42MDUgMS44ODMtLjI3IDIuODAxLS4yNDYtLjAxMi0uNjM2LS4wMi0xLjI3LS4wMjMtMS45MDItMS43OTMtLjM5OC0zLjMzNi42NTItNC4yNDIgMi4xMTctLjAyLS42MzMtLjA0LTEuMjY2LS4wNTEtMS44OTQtLjY1Ni0uMDI0LTEuMzEzLS4wNTEtMS45NjUtLjA3OXptMCAwIi8+PHBhdGggZD0iTTU4Ljc1OCA4OS4yMjNjMS42NTItLjgwNSA0LjAyMy0uNDEgNC45NDUgMS4zIDEuMDUgMS44ODcgMS4wMjcgNC4zODMtLjEzNyA2LjIxMS0xLjUyIDIuMjg2LTUuNTI3IDEuNzg2LTYuNTIzLS43NDItMS4wMDgtMi4yNTgtLjYxNy01LjQ4NCAxLjcxNS02Ljc3em0wIDBNNzkuMDQgOTIuNDE0Yy4wNDYtMS41NzQgMS4xNDQtMy4xMzcgMi43MjYtMy40OC45NzYtLjE2NCAyLjA5Ny4wMDcgMi43NzMuNzkzLjY3Mi43MTQuODEzIDEuNzE0Ljk4IDIuNjQtMi4xNi4wMTItNC4zMi0uMDMxLTYuNDguMDQ3em0wIDAiLz48L2c+PC9zdmc+;" parent="r9mk5RFWZT2YGMJUsQV9-5" vertex="1">
          <mxGeometry x="12.708404935884687" width="27.29521480765403" height="27.29521480765403" as="geometry" />
        </mxCell>
        <mxCell id="SqgddykTs4HYqL3Znm7L-7" style="edgeStyle=none;rounded=0;sketch=1;orthogonalLoop=1;jettySize=auto;html=1;entryX=0.56;entryY=0.083;entryDx=0;entryDy=0;entryPerimeter=0;strokeColor=#FF3399;" parent="r9mk5RFWZT2YGMJUsQV9-5" source="SqgddykTs4HYqL3Znm7L-6" target="jxoymsFl4kqGbWP8mDqd-55" edge="1">
          <mxGeometry relative="1" as="geometry" />
        </mxCell>
        <mxCell id="SqgddykTs4HYqL3Znm7L-8" style="edgeStyle=none;rounded=0;sketch=1;orthogonalLoop=1;jettySize=auto;html=1;strokeColor=#FF3399;" parent="r9mk5RFWZT2YGMJUsQV9-5" source="SqgddykTs4HYqL3Znm7L-6" target="jxoymsFl4kqGbWP8mDqd-56" edge="1">
          <mxGeometry relative="1" as="geometry" />
        </mxCell>
        <mxCell id="SqgddykTs4HYqL3Znm7L-6" value="App Service (Containerized)" style="aspect=fixed;html=1;points=[];align=center;image;fontSize=12;image=img/lib/azure2/compute/App_Services.svg;labelBackgroundColor=default;fontStyle=5" parent="r9mk5RFWZT2YGMJUsQV9-5" vertex="1">
          <mxGeometry x="124" y="30" width="64" height="64" as="geometry" />
        </mxCell>
        <mxCell id="SqgddykTs4HYqL3Znm7L-9" value="" style="sketch=0;aspect=fixed;html=1;points=[];align=center;image;fontSize=12;image=img/lib/mscae/Docker.svg;labelBackgroundColor=default;" parent="r9mk5RFWZT2YGMJUsQV9-5" vertex="1">
          <mxGeometry x="263" width="50" height="41" as="geometry" />
        </mxCell>
        <mxCell id="6ZIBDE49WQn55EvCpT9G-7" value="" style="group" parent="1" vertex="1" connectable="0">
          <mxGeometry x="660" y="490" width="321.71" height="136.5" as="geometry" />
        </mxCell>
        <mxCell id="J6pMH1p_7KSv0R4gjlsr-44" value="" style="shape=image;aspect=fixed;image=data:image/svg+xml,PHN2ZyB4bWxucz0iaHR0cDovL3d3dy53My5vcmcvMjAwMC9zdmciIHZpZXdCb3g9IjAgMCAxMjggMTI4Ij48cGF0aCBmaWxsPSIjOUI0Rjk2IiBkPSJNMTE1LjQgMzAuN0w2Ny4xIDIuOWMtLjgtLjUtMS45LS43LTMuMS0uNy0xLjIgMC0yLjMuMy0zLjEuN2wtNDggMjcuOWMtMS43IDEtMi45IDMuNS0yLjkgNS40djU1LjdjMCAxLjEuMiAyLjQgMSAzLjVsMTA2LjgtNjJjLS42LTEuMi0xLjUtMi4xLTIuNC0yLjd6Ii8+PHBhdGggZmlsbD0iIzY4MjE3QSIgZD0iTTEwLjcgOTUuM2MuNS44IDEuMiAxLjUgMS45IDEuOWw0OC4yIDI3LjljLjguNSAxLjkuNyAzLjEuNyAxLjIgMCAyLjMtLjMgMy4xLS43bDQ4LTI3LjljMS43LTEgMi45LTMuNSAyLjktNS40VjM2LjFjMC0uOS0uMS0xLjktLjYtMi44bC0xMDYuNiA2MnoiLz48cGF0aCBmaWxsPSIjZmZmIiBkPSJNODUuMyA3Ni4xQzgxLjEgODMuNSA3My4xIDg4LjUgNjQgODguNWMtMTMuNSAwLTI0LjUtMTEtMjQuNS0yNC41czExLTI0LjUgMjQuNS0yNC41YzkuMSAwIDE3LjEgNSAyMS4zIDEyLjVsMTMtNy41Yy02LjgtMTEuOS0xOS42LTIwLTM0LjMtMjAtMjEuOCAwLTM5LjUgMTcuNy0zOS41IDM5LjVzMTcuNyAzOS41IDM5LjUgMzkuNWMxNC42IDAgMjcuNC04IDM0LjItMTkuOGwtMTIuOS03LjZ6TTk3IDY2LjJsLjktNC4zaC00LjJ2LTQuN2g1LjFMMTAwIDUxaDQuOWwtMS4yIDYuMWgzLjhsMS4yLTYuMWg0LjhsLTEuMiA2LjFoMi40djQuN2gtMy4zbC0uOSA0LjNoNC4ydjQuN2gtNS4xbC0xLjIgNmgtNC45bDEuMi02aC0zLjhsLTEuMiA2aC00LjhsMS4yLTZoLTIuNHYtNC43SDk3em00LjggMGgzLjhsLjktNC4zaC0zLjhsLS45IDQuM3oiLz48L3N2Zz4=;" parent="6ZIBDE49WQn55EvCpT9G-7" vertex="1">
          <mxGeometry x="40" width="30" height="30" as="geometry" />
        </mxCell>
        <mxCell id="J6pMH1p_7KSv0R4gjlsr-39" value="" style="shape=image;aspect=fixed;image=data:image/svg+xml,PHN2ZyB4bWxucz0iaHR0cDovL3d3dy53My5vcmcvMjAwMC9zdmciIHZpZXdCb3g9IjAgMCAxMjggMTI4Ij48ZyBmaWxsPSIjNjIzNjk3Ij48cGF0aCBkPSJNNjEuMTk1IDBoNC45NTNjMTIuOTE4LjUzNSAyNS42ODggNC44OSAzNi4wNDMgMTIuNjc2IDkuODA5IDcuMjg5IDE3LjQ3MyAxNy40MzcgMjEuNzI3IDI4LjkwNiAyLjQ0MSA2LjM4NyAzLjY2NCAxMy4xOCA0LjA4MiAxOS45OTJ2NC4yMTFjLS40MTQgMTEuMjkzLTMuNjY0IDIyLjUyLTkuNzMgMzIuMDgyLTYuODAxIDEwLjg5NS0xNi45MjIgMTkuNzMtMjguNzI3IDI0LjgyOEE2NC4zOTkgNjQuMzk5IDAgMDE2NS4wODIgMTI4aC0yLjE0NGMtMTEuNzM1LS4xOTEtMjMuNDEtMy42Ni0zMy4yOTctOS45OTItMTEuMTk2LTcuMTEzLTIwLjExNC0xNy43ODUtMjUuMDI4LTMwLjExN0MxLjg5MSA4MS4xOS40NDEgNzQuMDIgMCA2Ni44MTJ2LTQuOTU3Yy41MDQtMTQuMzkgNS45NTMtMjguNjA5IDE1LjQxLTM5LjQ5NkMyMy4xNjggMTMuMzEgMzMuNSA2LjQ4IDQ0Ljg4NyAyLjkzNyA1MC4xNzIgMS4yNyA1NS42NzYuNDEgNjEuMTk1IDBNMjUuMTkxIDM3LjUyM2MtLjAzIDEyLjE1My0uMDExIDI0LjMwNS0uMDExIDM2LjQ1NCAxLjQzLjAxMSAyLjg2LjAxMSA0LjI5My4wMTEtLjA3NS0xMC40MzMuMTAxLTIwLjg2My0uMTA2LTMxLjI5My40OC45MDcuOTE4IDEuODQgMS40NjUgMi43MDdDMzcuMDM1IDU0LjkxIDQzLjEwNSA2NC41IDQ5LjMwOSA3NGMxLjczOC0uMDIzIDMuNDc2LS4wMjMgNS4yMTQuMDA0LS4wMDMtMTIuMTYtLjAwNy0yNC4zMi4wMDQtMzYuNDhhMzA4LjA3NiAzMDguMDc2IDAgMDAtNC4yNS0uMDEyYy4wNzUgMTAuMzItLjEzNiAyMC42NC4xMjUgMzAuOTQ5LTYuNTA3LTEwLjM1Mi0xMy4xMDEtMjAuNjQ1LTE5LjY5NS0zMC45NDVhMzcwLjg1IDM3MC44NSAwIDAwLTUuNTE2LjAwN20zOC44NDQtLjAxMWMtLjEyOSAxMi4xNi0uMDA0IDI0LjMyLS4wNDcgMzYuNDc2IDYuNDY5LS4wMTUgMTIuOTM4LjAyNCAxOS40MS0uMDJhODMuMzYgODMuMzYgMCAwMS4wMjQtMy45NTJjLTUuMDEyLS4wMTYtMTAuMDI3LjAwNy0xNS4wNDMtLjAyLS4wNzQtNC4yMS0uMDA0LTguNDI2LS4wNC0xMi42MzcgNC4zOTUtLjA3OCA4Ljc5LjAxMiAxMy4xOC0uMDQ3LS4wMTEtMS4yNzctLjAxMS0yLjU1NC0uMDE5LTMuODMyLTQuMzg3LjE0MS04Ljc3My0uMDU0LTEzLjE2NC4wMTIuMDEyLTQuMDIzLjAyLTguMDUuMDItMTIuMDc4IDQuNjk5IDAgOS4zOTgtLjAyIDE0LjA5My4wMTItLjAwOC0xLjMwMSAwLTIuNjA2LjAxNi0zLjkwNi02LjE0NS0uMDE2LTEyLjI5LS4wMDgtMTguNDMtLjAwOG0yMi42MDIuMDU0Yy4wMDQgMS4yNjYuMDA0IDIuNTI4LjAwOCAzLjc5IDMuNDg4LS4wNCA2Ljk3Mi4xMDkgMTAuNDYuMDM1LS4wMjMgMTAuODYzLjAwNCAyMS43MTgtLjAxMSAzMi41NzQgMS40Ni4wNDMgMi45My4wMzUgNC4zOS0uMDktLjEyLTUuOTkyLjExOC0xMS45ODgtLjE1Ni0xNy45NzcuMDY3LTIuNjk5LS4wNy01LjM5NC4xMTctOC4wOS4xMDYtMi4xNC0uMjc3LTQuMjc3LS4wMzUtNi40MTcgMy41MTYuMDQ3IDcuMDM1LjAxNSAxMC41NS4wMTVhNTkuNzc0IDU5Ljc3NCAwIDAxLjA3NS0zLjgzMmMtOC40NjktLjEwNS0xNi45MzctLjA5NC0yNS4zOTgtLjAwOE0xMy41NSA2OS4wOTRjLTEuOTc3LjkxLTIuMTA2IDQuMDIzLS4xNDkgNS4wMjcgMS43MiAxLjE4IDQuMzA1LS4zNzEgNC4yMjctMi40MS4xMzMtMi4wMDQtMi4yOS0zLjY4OC00LjA3OC0yLjYxN20yOS4yMyAxNS4yODljLTQuMjc3IDMuNDY5LTQuMjI2IDExLjE5NS41IDE0LjI1IDIuNjY4IDEuNjk1IDYuMTAyIDEuMzQ0IDguOTIyLjIxNS4wMTItLjYyMS4wMjctMS4yMzkuMDUtMS44Ni0yLjY3MSAxLjM5NS02LjQxIDEuNjgtOC42NzUtLjYxLTIuOTY1LTMuMjM3LTIuMjk3LTkuMjY5IDEuNjEzLTExLjQ3NiAyLjIxMS0xLjE2NCA0LjkwNy0uODI0IDcuMDg2LjIzOS0uMDA3LS42Ni0uMDA0LTEuMzIgMC0xLjk4LTMuMDk3LTEuMDk5LTYuOTIyLTEuMDQtOS40OTYgMS4yMjJtMTcuMjA3IDIuNzFjLTEuODkuMjItMy43NTggMS4yMi00LjYzMyAyLjk2Ni0xLjI1MyAyLjQ5Ni0xLjEwOSA1Ljg2Ny44NjQgNy45NiAyLjAzNSAyLjI5NyA1Ljk0NSAyLjMyIDguMTguMjk3IDIuNDI1LTIuMzA4IDIuNjk5LTYuNDY4Ljc1Ny05LjE2NC0xLjE0OC0xLjYyOS0zLjI3My0yLjE4My01LjE2OC0yLjA1OG0xNy44ODcgMi43MjJjLTEuNjYgMi44ODMtMS4zMzIgNy4yNSAxLjU5OCA5LjIxMSAyLjE4MyAxLjIyIDQuOTMzLjgzMiA3LjA3NC0uMzA4LS4wMDQtLjYxNy4wMDQtMS4yMzUuMDMxLTEuODQ4LTEuNjg3IDEuMDctMy45MzcgMS44NTYtNS44MTIuNzc3LTEuMzA5LS43MjItMS43MDQtMi4yNTctMS45MTQtMy42MjUgMi44NzUtLjAzOSA1Ljc0Ni0uMDgyIDguNjI1LS4wNzQtLjA3NS0xLjgyOC0uMTE4LTMuODk0LTEuNDUtNS4zMDgtMi4xOTktMi40My02LjY0NC0xLjY1Ny04LjE1MiAxLjE3NW0tOC40MTQtMi4zMzZ2MTIuMDA4Yy42NTIgMCAxLjMxMiAwIDEuOTczLjAwNC4wMjMtMi4xOTUtLjA0LTQuMzk0LjAyMy02LjU5NC4wMTYtMS4yNy41MjctMi41NTggMS40ODQtMy40MTQuODAxLS42MDUgMS44ODMtLjI3IDIuODAxLS4yNDYtLjAxMi0uNjM2LS4wMi0xLjI3LS4wMjMtMS45MDItMS43OTMtLjM5OC0zLjMzNi42NTItNC4yNDIgMi4xMTctLjAyLS42MzMtLjA0LTEuMjY2LS4wNTEtMS44OTQtLjY1Ni0uMDI0LTEuMzEzLS4wNTEtMS45NjUtLjA3OXptMCAwIi8+PHBhdGggZD0iTTU4Ljc1OCA4OS4yMjNjMS42NTItLjgwNSA0LjAyMy0uNDEgNC45NDUgMS4zIDEuMDUgMS44ODcgMS4wMjcgNC4zODMtLjEzNyA2LjIxMS0xLjUyIDIuMjg2LTUuNTI3IDEuNzg2LTYuNTIzLS43NDItMS4wMDgtMi4yNTgtLjYxNy01LjQ4NCAxLjcxNS02Ljc3em0wIDBNNzkuMDQgOTIuNDE0Yy4wNDYtMS41NzQgMS4xNDQtMy4xMzcgMi43MjYtMy40OC45NzYtLjE2NCAyLjA5Ny4wMDcgMi43NzMuNzkzLjY3Mi43MTQuODEzIDEuNzE0Ljk4IDIuNjQtMi4xNi4wMTItNC4zMi0uMDMxLTYuNDguMDQ3em0wIDAiLz48L2c+PC9zdmc+;" parent="6ZIBDE49WQn55EvCpT9G-7" vertex="1">
          <mxGeometry x="10" width="30" height="30" as="geometry" />
        </mxCell>
        <mxCell id="jxoymsFl4kqGbWP8mDqd-20" value="Shopping Cart API" style="rounded=0;whiteSpace=wrap;html=1;labelBackgroundColor=none;sketch=1;strokeColor=#000000;strokeWidth=1;fontColor=#000000;fillColor=#CCE5FF;verticalAlign=bottom;labelPosition=center;verticalLabelPosition=top;align=center;shadow=0;" parent="6ZIBDE49WQn55EvCpT9G-7" vertex="1">
          <mxGeometry y="16.5" width="321.71" height="120" as="geometry" />
        </mxCell>
        <mxCell id="jxoymsFl4kqGbWP8mDqd-43" value="" style="group;labelBackgroundColor=default;" parent="6ZIBDE49WQn55EvCpT9G-7" vertex="1" connectable="0">
          <mxGeometry x="190" y="22.5" width="74" height="79" as="geometry" />
        </mxCell>
        <mxCell id="jxoymsFl4kqGbWP8mDqd-42" value="&lt;b&gt;&lt;u&gt;CosmosDB&lt;/u&gt;&lt;/b&gt;" style="aspect=fixed;html=1;points=[];align=center;image;fontSize=12;image=img/lib/azure2/databases/Azure_Cosmos_DB.svg;rounded=0;shadow=0;glass=0;dashed=1;labelBackgroundColor=default;sketch=0;strokeColor=#000000;strokeWidth=3;fontColor=#000000;fillColor=#CCE5FF;" parent="jxoymsFl4kqGbWP8mDqd-43" vertex="1">
          <mxGeometry y="15" width="64" height="64" as="geometry" />
        </mxCell>
        <mxCell id="SqgddykTs4HYqL3Znm7L-3" style="rounded=0;orthogonalLoop=1;jettySize=auto;html=1;entryX=0.016;entryY=0.625;entryDx=0;entryDy=0;entryPerimeter=0;strokeColor=#FF3399;sketch=1;" parent="6ZIBDE49WQn55EvCpT9G-7" source="gjyWVU2bTV-QBdAIOyQE-2" target="jxoymsFl4kqGbWP8mDqd-42" edge="1">
          <mxGeometry relative="1" as="geometry">
            <mxPoint x="110" y="76.73961669056052" as="sourcePoint" />
          </mxGeometry>
        </mxCell>
        <mxCell id="gjyWVU2bTV-QBdAIOyQE-2" value="Container App (ACA)" style="shape=image;aspect=fixed;image=data:image/svg+xml,PHN2ZyB4bWxucz0iaHR0cDovL3d3dy53My5vcmcvMjAwMC9zdmciIHdpZHRoPSIxOCIgaGVpZ2h0PSIxOCIgdmlld0JveD0iMCAwIDE4IDE4Ij48ZGVmcz48bGluZWFyR3JhZGllbnQgaWQ9ImIyN2YxYWQwLTdkMTEtNDI0Ny05ZGEzLTkxYmNlNjIxMWYzMiIgeDE9IjguNzk4IiB5MT0iOC43MDMiIHgyPSIxNC42ODMiIHkyPSI4LjcwMyIgZ3JhZGllbnRVbml0cz0idXNlclNwYWNlT25Vc2UiPjxzdG9wIG9mZnNldD0iMC4wMDEiIHN0b3AtY29sb3I9IiM3NzNhZGMiIC8+PHN0b3Agb2Zmc2V0PSIxIiBzdG9wLWNvbG9yPSIjNTUyZjk5IiAvPjwvbGluZWFyR3JhZGllbnQ+PGxpbmVhckdyYWRpZW50IGlkPSJiMmY5MjExMi00Y2E5LTRiMTctYTAxOS1jOWYyNmMxYTRhOGYiIHgxPSI1Ljc2NCIgeTE9IjMuNzc3IiB4Mj0iNS43NjQiIHkyPSIxMy43OCIgZ3JhZGllbnRVbml0cz0idXNlclNwYWNlT25Vc2UiPjxzdG9wIG9mZnNldD0iMCIgc3RvcC1jb2xvcj0iI2E2N2FmNCIgLz48c3RvcCBvZmZzZXQ9IjAuOTk5IiBzdG9wLWNvbG9yPSIjNzczYWRjIiAvPjwvbGluZWFyR3JhZGllbnQ+PC9kZWZzPjxnIGlkPSJiOGEwNDg2YS01NTAxLTRkOTItYjU0MC1hNzY2YzRiM2I1NDgiPjxnPjxnPjxnPjxwYXRoIGQ9Ik0xNi45MzIsMTEuNTc4YTguNDQ4LDguNDQ4LDAsMCwxLTcuOTUsNS41OSw4LjE1LDguMTUsMCwwLDEtMi4zMy0uMzMsMi4xMzMsMi4xMzMsMCwwLDAsLjE4LS44M2MuMDEsMCwuMDMuMDEuMDQuMDFhNy40MjIsNy40MjIsMCwwLDAsMi4xMS4zLDcuNjQ2LDcuNjQ2LDAsMCwwLDYuODUtNC4yOGwuMDEtLjAxWiIgZmlsbD0iIzMyYmVkZCIgLz48cGF0aCBkPSJNMy41ODIsMTQuMDY4YTIuMDI1LDIuMDI1LDAsMCwwLS42NC41Niw4LjYsOC42LDAsMCwxLTEuNjctMi40NGwxLjA0LjIzdi4yNmEuNi42LDAsMCwwLC40Ny41OWwuMTQuMDNhNi4xMzYsNi4xMzYsMCwwLDAsLjYyLjczWiIgZmlsbD0iIzMyYmVkZCIgLz48cGF0aCBkPSJNMTIuMzUyLjk1OGEyLjI4LDIuMjgsMCwwLDAtLjI3LjgxYy0uMDItLjAxLS4wNS0uMDItLjA3LS4wM2E3LjQ3OSw3LjQ3OSwwLDAsMC0zLjAzLS42Myw3LjY0Myw3LjY0MywwLDAsMC01LjksMi44bC0uMjkuMDZhLjYuNiwwLDAsMC0uNDguNTh2LjQ2bC0xLjAyLjE5QTguNDU0LDguNDU0LDAsMCwxLDguOTgyLjI2OCw4LjYsOC42LDAsMCwxLDEyLjM1Mi45NThaIiBmaWxsPSIjMzJiZWRkIiAvPjxwYXRoIGQ9Ik0xNi44NzIsNS43bC0xLjA5LS4zOGE2LjYsNi42LDAsMCwwLS43Mi0xLjE2Yy0uMDItLjAzLS4wNC0uMDUtLjA1LS4wN2EyLjA4MywyLjA4MywwLDAsMCwuNzItLjQ1QTcuODEsNy44MSwwLDAsMSwxNi44NzIsNS43WiIgZmlsbD0iIzMyYmVkZCIgLz48cGF0aCBkPSJNMTAuMDcyLDExLjkwOGwyLjU0LjU2TDguNjcyLDE0LjFjLS4wMiwwLS4wMy4wMS0uMDUuMDFhLjE1NC4xNTQsMCwwLDEtLjE1LS4xNVYzLjQ0OGEuMTU0LjE1NCwwLDAsMSwuMTUtLjE1LjA5LjA5LDAsMCwxLC4wNS4wMWw0LjQ2LDEuNTYtMy4wNS41N2EuNTY1LjU2NSwwLDAsMC0uNDQuNTR2NS40QS41MzcuNTM3LDAsMCwwLDEwLjA3MiwxMS45MDhaIiBmaWxsPSIjZmZmIiAvPjxnPjxnIGlkPSJlOTE4ZjI4Ni01MDMyLTQ5NDItYWQyOS1lYTE3ZTZmMWNjOTAiPjxwYXRoIGQ9Ik0xLjEsNS42NjhsMS4yMS0uMjN2Ni41NWwtMS4yMy0uMjctLjk5LS4yMmEuMTExLjExMSwwLDAsMS0uMDktLjEydi01LjRhLjEyLjEyLDAsMCwxLC4wOS0uMTJaIiBmaWxsPSIjYTY3YWY0IiAvPjwvZz48Zz48ZyBpZD0iYTQ3YTk5ZGQtNGQ0Ny00YzcwLThjNDItYzVhYzI3NGNlNDk2Ij48Zz48cGF0aCBkPSJNMTAuMDcyLDExLjkwOGwyLjU0LjU2TDguNjcyLDE0LjFjLS4wMiwwLS4wMy4wMS0uMDUuMDFhLjE1NC4xNTQsMCwwLDEtLjE1LS4xNVYzLjQ0OGEuMTU0LjE1NCwwLDAsMSwuMTUtLjE1LjA5LjA5LDAsMCwxLC4wNS4wMWw0LjQ2LDEuNTYtMy4wNS41N2EuNTY1LjU2NSwwLDAsMC0uNDQuNTR2NS40QS41MzcuNTM3LDAsMCwwLDEwLjA3MiwxMS45MDhaIiBmaWxsPSJ1cmwoI2IyN2YxYWQwLTdkMTEtNDI0Ny05ZGEzLTkxYmNlNjIxMWYzMikiIC8+PHBhdGggZD0iTTguNTg2LDMuMywyLjg3OCw0LjM3OGEuMTc3LjE3NywwLDAsMC0uMTQuMTc1VjEyLjY4YS4xNzcuMTc3LDAsMCwwLC4xMzcuMTc0TDguNTgxLDE0LjFhLjE3Ni4xNzYsMCwwLDAsLjIxLS4xNzRWMy40NzhBLjE3NS4xNzUsMCwwLDAsOC42MTksMy4zWiIgZmlsbD0idXJsKCNiMmY5MjExMi00Y2E5LTRiMTctYTAxOS1jOWYyNmMxYTRhOGYpIiAvPjwvZz48L2c+PHBvbHlnb24gcG9pbnRzPSI1Ljk0OCA0LjkyMSA1Ljk0OCAxMi40ODMgNy45MzQgMTIuODE0IDcuOTM0IDQuNTY0IDUuOTQ4IDQuOTIxIiBmaWxsPSIjYjc5NmY5IiBvcGFjaXR5PSIwLjUiIC8+PHBvbHlnb24gcG9pbnRzPSIzLjUwOSA1LjMyOSAzLjUwOSAxMS45NTQgNS4yMzggMTIuMzE3IDUuMjM4IDUuMDMxIDMuNTA5IDUuMzI5IiBmaWxsPSIjYjc5NmY5IiBvcGFjaXR5PSIwLjUiIC8+PC9nPjwvZz48L2c+PHBhdGggZD0iTTE2LDIuMDQ4YTEuNzU1LDEuNzU1LDAsMSwxLTEuNzYtMS43NkExLjc1NiwxLjc1NiwwLDAsMSwxNiwyLjA0OFoiIGZpbGw9IiMzMmJlZGQiIC8+PGNpcmNsZSBjeD0iNC42NSIgY3k9IjE1Ljk3MyIgcj0iMS43NTkiIGZpbGw9IiMzMmJlZGQiIC8+PC9nPjxwYXRoIGQ9Ik0xOCw2LjY4OXYzLjg0NGEuMjIyLjIyMiwwLDAsMS0uMTMzLjJsLS43NjYuMzE2LTMuMDcsMS4yNjgtLjAxMSwwYS4xMjYuMTI2LDAsMCwxLS4wMzgsMCwuMS4xLDAsMCwxLS4xLS4xVjUuMjM0YS4xLjEsMCwwLDEsLjA1NC0uMDg4bDAsMCwuMDE5LDBhLjAzMS4wMzEsMCwwLDEsLjAxOSwwLC4wNTUuMDU1LDAsMCwxLC4wMzQuMDA4bC4wMTEsMCwuMDEyLDBMMTcuMDUsNi4ybC44LjI4MkEuMjEzLjIxMywwLDAsMSwxOCw2LjY4OVoiIGZpbGw9IiM3NzNhZGMiIC8+PHBhdGggZD0iTTEzLjk1OSw1LjE0bC0zLjguNzE1YS4xMTguMTE4LDAsMCwwLS4wOTMuMTE3djUuNDA5YS4xMTguMTE4LDAsMCwwLC4wOTEuMTE2bDMuOC44MzFhLjExNS4xMTUsMCwwLDAsLjEzNy0uMDkuMTA5LjEwOSwwLDAsMCwwLS4wMjZWNS4yNTZhLjExNy4xMTcsMCwwLDAtLjExNS0uMTE4QS4wODIuMDgyLDAsMCwwLDEzLjk1OSw1LjE0WiIgZmlsbD0iI2E2N2FmNCIgLz48L2c+PC9nPjwvc3ZnPg==;verticalAlign=top;labelPosition=center;verticalLabelPosition=bottom;align=center;labelBackgroundColor=default;fontStyle=5" parent="6ZIBDE49WQn55EvCpT9G-7" vertex="1">
          <mxGeometry x="50" y="41.5" width="60" height="60" as="geometry" />
        </mxCell>
        <mxCell id="6ZIBDE49WQn55EvCpT9G-39" value="" style="group" parent="1" vertex="1" connectable="0">
          <mxGeometry x="660" y="680" width="320" height="240" as="geometry" />
        </mxCell>
        <mxCell id="jxoymsFl4kqGbWP8mDqd-21" value="Products + Stocks/Inventory API" style="rounded=0;whiteSpace=wrap;html=1;labelBackgroundColor=none;sketch=1;strokeColor=#000000;strokeWidth=1;fontColor=#000000;fillColor=#FFCCFF;verticalAlign=bottom;labelPosition=center;verticalLabelPosition=top;align=center;" parent="6ZIBDE49WQn55EvCpT9G-39" vertex="1">
          <mxGeometry y="12.700000000000045" width="320" height="227.3" as="geometry" />
        </mxCell>
        <mxCell id="jxoymsFl4kqGbWP8mDqd-50" value="SQL Azure" style="aspect=fixed;html=1;points=[];align=center;image;fontSize=12;image=img/lib/azure2/databases/SQL_Database.svg;rounded=0;shadow=0;glass=0;dashed=1;labelBackgroundColor=default;sketch=0;strokeColor=#000000;strokeWidth=3;fontColor=#000000;fillColor=#FF3333;fontStyle=5" parent="6ZIBDE49WQn55EvCpT9G-39" vertex="1">
          <mxGeometry x="210.00490858946296" y="43.83999999999992" width="43.67234369224644" height="58.22979158966193" as="geometry" />
        </mxCell>
        <mxCell id="J6pMH1p_7KSv0R4gjlsr-45" value="" style="shape=image;aspect=fixed;image=data:image/svg+xml,PHN2ZyB4bWxucz0iaHR0cDovL3d3dy53My5vcmcvMjAwMC9zdmciIHZpZXdCb3g9IjAgMCAxMjggMTI4Ij48cGF0aCBmaWxsPSIjOUI0Rjk2IiBkPSJNMTE1LjQgMzAuN0w2Ny4xIDIuOWMtLjgtLjUtMS45LS43LTMuMS0uNy0xLjIgMC0yLjMuMy0zLjEuN2wtNDggMjcuOWMtMS43IDEtMi45IDMuNS0yLjkgNS40djU1LjdjMCAxLjEuMiAyLjQgMSAzLjVsMTA2LjgtNjJjLS42LTEuMi0xLjUtMi4xLTIuNC0yLjd6Ii8+PHBhdGggZmlsbD0iIzY4MjE3QSIgZD0iTTEwLjcgOTUuM2MuNS44IDEuMiAxLjUgMS45IDEuOWw0OC4yIDI3LjljLjguNSAxLjkuNyAzLjEuNyAxLjIgMCAyLjMtLjMgMy4xLS43bDQ4LTI3LjljMS43LTEgMi45LTMuNSAyLjktNS40VjM2LjFjMC0uOS0uMS0xLjktLjYtMi44bC0xMDYuNiA2MnoiLz48cGF0aCBmaWxsPSIjZmZmIiBkPSJNODUuMyA3Ni4xQzgxLjEgODMuNSA3My4xIDg4LjUgNjQgODguNWMtMTMuNSAwLTI0LjUtMTEtMjQuNS0yNC41czExLTI0LjUgMjQuNS0yNC41YzkuMSAwIDE3LjEgNSAyMS4zIDEyLjVsMTMtNy41Yy02LjgtMTEuOS0xOS42LTIwLTM0LjMtMjAtMjEuOCAwLTM5LjUgMTcuNy0zOS41IDM5LjVzMTcuNyAzOS41IDM5LjUgMzkuNWMxNC42IDAgMjcuNC04IDM0LjItMTkuOGwtMTIuOS03LjZ6TTk3IDY2LjJsLjktNC4zaC00LjJ2LTQuN2g1LjFMMTAwIDUxaDQuOWwtMS4yIDYuMWgzLjhsMS4yLTYuMWg0LjhsLTEuMiA2LjFoMi40djQuN2gtMy4zbC0uOSA0LjNoNC4ydjQuN2gtNS4xbC0xLjIgNmgtNC45bDEuMi02aC0zLjhsLTEuMiA2aC00LjhsMS4yLTZoLTIuNHYtNC43SDk3em00LjggMGgzLjhsLjktNC4zaC0zLjhsLS45IDQuM3oiLz48L3N2Zz4=;" parent="6ZIBDE49WQn55EvCpT9G-39" vertex="1">
          <mxGeometry x="36.389999999999986" width="30" height="30" as="geometry" />
        </mxCell>
        <mxCell id="SqgddykTs4HYqL3Znm7L-5" style="edgeStyle=none;rounded=0;sketch=1;orthogonalLoop=1;jettySize=auto;html=1;strokeColor=#FF3399;" parent="6ZIBDE49WQn55EvCpT9G-39" source="6ZIBDE49WQn55EvCpT9G-8" target="jxoymsFl4kqGbWP8mDqd-50" edge="1">
          <mxGeometry relative="1" as="geometry">
            <mxPoint x="112.73999999999978" y="72.95103682537638" as="sourcePoint" />
          </mxGeometry>
        </mxCell>
        <mxCell id="r9mk5RFWZT2YGMJUsQV9-8" value="CosmosDB" style="aspect=fixed;html=1;points=[];align=center;image;fontSize=12;image=img/lib/azure2/databases/Azure_Cosmos_DB.svg;fontStyle=5" parent="6ZIBDE49WQn55EvCpT9G-39" vertex="1">
          <mxGeometry x="160" y="140" width="64" height="64" as="geometry" />
        </mxCell>
        <mxCell id="r9mk5RFWZT2YGMJUsQV9-11" style="edgeStyle=none;rounded=0;sketch=1;orthogonalLoop=1;jettySize=auto;html=1;strokeColor=#FF3399;" parent="6ZIBDE49WQn55EvCpT9G-39" source="6ZIBDE49WQn55EvCpT9G-8" target="r9mk5RFWZT2YGMJUsQV9-8" edge="1">
          <mxGeometry relative="1" as="geometry">
            <mxPoint x="112.73999999999978" y="101.43822577745823" as="sourcePoint" />
            <mxPoint x="95.13154972236225" y="140" as="targetPoint" />
          </mxGeometry>
        </mxCell>
        <mxCell id="6ZIBDE49WQn55EvCpT9G-8" value="&lt;b&gt;&lt;u&gt;AKS&lt;/u&gt;&lt;/b&gt;" style="html=1;points=[];align=center;image;fontSize=12;image=img/lib/azure2/containers/Kubernetes_Services.svg;rounded=0;shadow=0;glass=0;dashed=1;labelBackgroundColor=default;sketch=0;strokeColor=#000000;strokeWidth=3;fontColor=#000000;fillColor=#E1D5E7;aspect=fixed;" parent="6ZIBDE49WQn55EvCpT9G-39" vertex="1">
          <mxGeometry x="36.389999999999986" y="60" width="60" height="60" as="geometry" />
        </mxCell>
        <mxCell id="J6pMH1p_7KSv0R4gjlsr-42" value="" style="shape=image;aspect=fixed;image=data:image/svg+xml,PHN2ZyB4bWxucz0iaHR0cDovL3d3dy53My5vcmcvMjAwMC9zdmciIHZpZXdCb3g9IjAgMCAxMjggMTI4Ij48ZyBmaWxsPSIjNjIzNjk3Ij48cGF0aCBkPSJNNjEuMTk1IDBoNC45NTNjMTIuOTE4LjUzNSAyNS42ODggNC44OSAzNi4wNDMgMTIuNjc2IDkuODA5IDcuMjg5IDE3LjQ3MyAxNy40MzcgMjEuNzI3IDI4LjkwNiAyLjQ0MSA2LjM4NyAzLjY2NCAxMy4xOCA0LjA4MiAxOS45OTJ2NC4yMTFjLS40MTQgMTEuMjkzLTMuNjY0IDIyLjUyLTkuNzMgMzIuMDgyLTYuODAxIDEwLjg5NS0xNi45MjIgMTkuNzMtMjguNzI3IDI0LjgyOEE2NC4zOTkgNjQuMzk5IDAgMDE2NS4wODIgMTI4aC0yLjE0NGMtMTEuNzM1LS4xOTEtMjMuNDEtMy42Ni0zMy4yOTctOS45OTItMTEuMTk2LTcuMTEzLTIwLjExNC0xNy43ODUtMjUuMDI4LTMwLjExN0MxLjg5MSA4MS4xOS40NDEgNzQuMDIgMCA2Ni44MTJ2LTQuOTU3Yy41MDQtMTQuMzkgNS45NTMtMjguNjA5IDE1LjQxLTM5LjQ5NkMyMy4xNjggMTMuMzEgMzMuNSA2LjQ4IDQ0Ljg4NyAyLjkzNyA1MC4xNzIgMS4yNyA1NS42NzYuNDEgNjEuMTk1IDBNMjUuMTkxIDM3LjUyM2MtLjAzIDEyLjE1My0uMDExIDI0LjMwNS0uMDExIDM2LjQ1NCAxLjQzLjAxMSAyLjg2LjAxMSA0LjI5My4wMTEtLjA3NS0xMC40MzMuMTAxLTIwLjg2My0uMTA2LTMxLjI5My40OC45MDcuOTE4IDEuODQgMS40NjUgMi43MDdDMzcuMDM1IDU0LjkxIDQzLjEwNSA2NC41IDQ5LjMwOSA3NGMxLjczOC0uMDIzIDMuNDc2LS4wMjMgNS4yMTQuMDA0LS4wMDMtMTIuMTYtLjAwNy0yNC4zMi4wMDQtMzYuNDhhMzA4LjA3NiAzMDguMDc2IDAgMDAtNC4yNS0uMDEyYy4wNzUgMTAuMzItLjEzNiAyMC42NC4xMjUgMzAuOTQ5LTYuNTA3LTEwLjM1Mi0xMy4xMDEtMjAuNjQ1LTE5LjY5NS0zMC45NDVhMzcwLjg1IDM3MC44NSAwIDAwLTUuNTE2LjAwN20zOC44NDQtLjAxMWMtLjEyOSAxMi4xNi0uMDA0IDI0LjMyLS4wNDcgMzYuNDc2IDYuNDY5LS4wMTUgMTIuOTM4LjAyNCAxOS40MS0uMDJhODMuMzYgODMuMzYgMCAwMS4wMjQtMy45NTJjLTUuMDEyLS4wMTYtMTAuMDI3LjAwNy0xNS4wNDMtLjAyLS4wNzQtNC4yMS0uMDA0LTguNDI2LS4wNC0xMi42MzcgNC4zOTUtLjA3OCA4Ljc5LjAxMiAxMy4xOC0uMDQ3LS4wMTEtMS4yNzctLjAxMS0yLjU1NC0uMDE5LTMuODMyLTQuMzg3LjE0MS04Ljc3My0uMDU0LTEzLjE2NC4wMTIuMDEyLTQuMDIzLjAyLTguMDUuMDItMTIuMDc4IDQuNjk5IDAgOS4zOTgtLjAyIDE0LjA5My4wMTItLjAwOC0xLjMwMSAwLTIuNjA2LjAxNi0zLjkwNi02LjE0NS0uMDE2LTEyLjI5LS4wMDgtMTguNDMtLjAwOG0yMi42MDIuMDU0Yy4wMDQgMS4yNjYuMDA0IDIuNTI4LjAwOCAzLjc5IDMuNDg4LS4wNCA2Ljk3Mi4xMDkgMTAuNDYuMDM1LS4wMjMgMTAuODYzLjAwNCAyMS43MTgtLjAxMSAzMi41NzQgMS40Ni4wNDMgMi45My4wMzUgNC4zOS0uMDktLjEyLTUuOTkyLjExOC0xMS45ODgtLjE1Ni0xNy45NzcuMDY3LTIuNjk5LS4wNy01LjM5NC4xMTctOC4wOS4xMDYtMi4xNC0uMjc3LTQuMjc3LS4wMzUtNi40MTcgMy41MTYuMDQ3IDcuMDM1LjAxNSAxMC41NS4wMTVhNTkuNzc0IDU5Ljc3NCAwIDAxLjA3NS0zLjgzMmMtOC40NjktLjEwNS0xNi45MzctLjA5NC0yNS4zOTgtLjAwOE0xMy41NSA2OS4wOTRjLTEuOTc3LjkxLTIuMTA2IDQuMDIzLS4xNDkgNS4wMjcgMS43MiAxLjE4IDQuMzA1LS4zNzEgNC4yMjctMi40MS4xMzMtMi4wMDQtMi4yOS0zLjY4OC00LjA3OC0yLjYxN20yOS4yMyAxNS4yODljLTQuMjc3IDMuNDY5LTQuMjI2IDExLjE5NS41IDE0LjI1IDIuNjY4IDEuNjk1IDYuMTAyIDEuMzQ0IDguOTIyLjIxNS4wMTItLjYyMS4wMjctMS4yMzkuMDUtMS44Ni0yLjY3MSAxLjM5NS02LjQxIDEuNjgtOC42NzUtLjYxLTIuOTY1LTMuMjM3LTIuMjk3LTkuMjY5IDEuNjEzLTExLjQ3NiAyLjIxMS0xLjE2NCA0LjkwNy0uODI0IDcuMDg2LjIzOS0uMDA3LS42Ni0uMDA0LTEuMzIgMC0xLjk4LTMuMDk3LTEuMDk5LTYuOTIyLTEuMDQtOS40OTYgMS4yMjJtMTcuMjA3IDIuNzFjLTEuODkuMjItMy43NTggMS4yMi00LjYzMyAyLjk2Ni0xLjI1MyAyLjQ5Ni0xLjEwOSA1Ljg2Ny44NjQgNy45NiAyLjAzNSAyLjI5NyA1Ljk0NSAyLjMyIDguMTguMjk3IDIuNDI1LTIuMzA4IDIuNjk5LTYuNDY4Ljc1Ny05LjE2NC0xLjE0OC0xLjYyOS0zLjI3My0yLjE4My01LjE2OC0yLjA1OG0xNy44ODcgMi43MjJjLTEuNjYgMi44ODMtMS4zMzIgNy4yNSAxLjU5OCA5LjIxMSAyLjE4MyAxLjIyIDQuOTMzLjgzMiA3LjA3NC0uMzA4LS4wMDQtLjYxNy4wMDQtMS4yMzUuMDMxLTEuODQ4LTEuNjg3IDEuMDctMy45MzcgMS44NTYtNS44MTIuNzc3LTEuMzA5LS43MjItMS43MDQtMi4yNTctMS45MTQtMy42MjUgMi44NzUtLjAzOSA1Ljc0Ni0uMDgyIDguNjI1LS4wNzQtLjA3NS0xLjgyOC0uMTE4LTMuODk0LTEuNDUtNS4zMDgtMi4xOTktMi40My02LjY0NC0xLjY1Ny04LjE1MiAxLjE3NW0tOC40MTQtMi4zMzZ2MTIuMDA4Yy42NTIgMCAxLjMxMiAwIDEuOTczLjAwNC4wMjMtMi4xOTUtLjA0LTQuMzk0LjAyMy02LjU5NC4wMTYtMS4yNy41MjctMi41NTggMS40ODQtMy40MTQuODAxLS42MDUgMS44ODMtLjI3IDIuODAxLS4yNDYtLjAxMi0uNjM2LS4wMi0xLjI3LS4wMjMtMS45MDItMS43OTMtLjM5OC0zLjMzNi42NTItNC4yNDIgMi4xMTctLjAyLS42MzMtLjA0LTEuMjY2LS4wNTEtMS44OTQtLjY1Ni0uMDI0LTEuMzEzLS4wNTEtMS45NjUtLjA3OXptMCAwIi8+PHBhdGggZD0iTTU4Ljc1OCA4OS4yMjNjMS42NTItLjgwNSA0LjAyMy0uNDEgNC45NDUgMS4zIDEuMDUgMS44ODcgMS4wMjcgNC4zODMtLjEzNyA2LjIxMS0xLjUyIDIuMjg2LTUuNTI3IDEuNzg2LTYuNTIzLS43NDItMS4wMDgtMi4yNTgtLjYxNy01LjQ4NCAxLjcxNS02Ljc3em0wIDBNNzkuMDQgOTIuNDE0Yy4wNDYtMS41NzQgMS4xNDQtMy4xMzcgMi43MjYtMy40OC45NzYtLjE2NCAyLjA5Ny4wMDcgMi43NzMuNzkzLjY3Mi43MTQuODEzIDEuNzE0Ljk4IDIuNjQtMi4xNi4wMTItNC4zMi0uMDMxLTYuNDguMDQ3em0wIDAiLz48L2c+PC9zdmc+;" parent="6ZIBDE49WQn55EvCpT9G-39" vertex="1">
          <mxGeometry x="9.098404935884673" width="27.29521480765403" height="27.29521480765403" as="geometry" />
        </mxCell>
        <mxCell id="3Wsy6diL1BG13nHRlo5x-35" value="" style="group" parent="1" vertex="1" connectable="0">
          <mxGeometry x="480" y="390" width="160" height="120" as="geometry" />
        </mxCell>
        <mxCell id="3Wsy6diL1BG13nHRlo5x-15" value="" style="rounded=0;whiteSpace=wrap;html=1;glass=0;sketch=1;fillStyle=auto;strokeWidth=1;fillColor=#FFCC99;fontColor=#ffffff;strokeColor=#000000;" parent="3Wsy6diL1BG13nHRlo5x-35" vertex="1">
          <mxGeometry width="160" height="120" as="geometry" />
        </mxCell>
        <mxCell id="3Wsy6diL1BG13nHRlo5x-14" value="Azure Active Directory" style="aspect=fixed;html=1;points=[];align=center;image;fontSize=12;image=img/lib/azure2/identity/Azure_Active_Directory.svg;rounded=0;glass=0;sketch=1;fillStyle=auto;strokeWidth=1;fillColor=#F8CECC;gradientColor=none;fontStyle=5" parent="3Wsy6diL1BG13nHRlo5x-35" vertex="1">
          <mxGeometry x="45" y="28" width="70" height="64" as="geometry" />
        </mxCell>
        <mxCell id="3Wsy6diL1BG13nHRlo5x-40" value="" style="group" parent="1" vertex="1" connectable="0">
          <mxGeometry x="510" y="1210" width="120" height="120" as="geometry" />
        </mxCell>
        <mxCell id="3Wsy6diL1BG13nHRlo5x-38" value="&lt;b&gt;&lt;u&gt;KeyVault&lt;/u&gt;&lt;/b&gt;" style="aspect=fixed;html=1;points=[];align=center;image;fontSize=12;image=img/lib/azure2/security/Key_Vaults.svg;rounded=0;glass=0;sketch=1;fillStyle=auto;strokeColor=#000000;strokeWidth=1;fillColor=#8AE6D5;gradientColor=none;" parent="3Wsy6diL1BG13nHRlo5x-40" vertex="1">
          <mxGeometry x="26" y="26" width="68" height="68" as="geometry" />
        </mxCell>
        <mxCell id="J6pMH1p_7KSv0R4gjlsr-34" value="" style="group" parent="3Wsy6diL1BG13nHRlo5x-40" vertex="1" connectable="0">
          <mxGeometry width="120" height="120" as="geometry" />
        </mxCell>
        <mxCell id="3Wsy6diL1BG13nHRlo5x-39" value="" style="rounded=0;whiteSpace=wrap;html=1;glass=0;sketch=1;fillStyle=auto;strokeColor=#000000;strokeWidth=1;fillColor=#A9C4EB;gradientColor=none;" parent="J6pMH1p_7KSv0R4gjlsr-34" vertex="1">
          <mxGeometry width="120" height="120" as="geometry" />
        </mxCell>
        <mxCell id="J6pMH1p_7KSv0R4gjlsr-33" value="&lt;b&gt;&lt;u&gt;KeyVault&lt;/u&gt;&lt;/b&gt;" style="aspect=fixed;html=1;points=[];align=center;image;fontSize=12;image=img/lib/azure2/security/Key_Vaults.svg;rounded=0;glass=0;sketch=1;fillStyle=auto;strokeColor=#000000;strokeWidth=1;fillColor=#8AE6D5;gradientColor=none;" parent="J6pMH1p_7KSv0R4gjlsr-34" vertex="1">
          <mxGeometry x="26" y="26" width="68" height="68" as="geometry" />
        </mxCell>
        <mxCell id="l4qQVPM9uVf8yrw8s2FZ-5" value="" style="group;movable=0;resizable=0;rotatable=0;deletable=0;editable=0;connectable=0;" parent="1" vertex="1" connectable="0">
          <mxGeometry x="400" y="663.5" width="190" height="175" as="geometry" />
        </mxCell>
        <mxCell id="IsQZMXGbZP2ML0eVI5PD-3" value="" style="group;fontSize=14;fontStyle=1;fontColor=#CC6600;movable=1;resizable=1;rotatable=1;deletable=1;editable=1;connectable=1;" parent="1" vertex="1" connectable="0">
          <mxGeometry x="385" y="650" width="256" height="265" as="geometry" />
        </mxCell>
        <mxCell id="IsQZMXGbZP2ML0eVI5PD-4" value="" style="group;movable=0;resizable=0;rotatable=0;deletable=0;editable=0;connectable=0;" parent="IsQZMXGbZP2ML0eVI5PD-3" vertex="1" connectable="0">
          <mxGeometry y="9" width="256" height="256" as="geometry" />
        </mxCell>
        <mxCell id="IsQZMXGbZP2ML0eVI5PD-1" value="&lt;b&gt;&lt;font style=&quot;font-size: 20px;&quot;&gt;CLOUD TESTING TOOLS&lt;/font&gt;&lt;/b&gt;" style="ellipse;whiteSpace=wrap;html=1;aspect=fixed;fillStyle=cross-hatch;sketch=1;curveFitting=1;jiggle=2;fillColor=#C3E8C5;strokeColor=#000000;perimeterSpacing=0;labelPosition=center;verticalLabelPosition=top;align=center;verticalAlign=bottom;movable=0;resizable=0;rotatable=0;deletable=0;editable=0;connectable=0;" parent="IsQZMXGbZP2ML0eVI5PD-4" vertex="1">
          <mxGeometry width="256" height="256" as="geometry" />
        </mxCell>
        <mxCell id="l4qQVPM9uVf8yrw8s2FZ-3" value="Chaos Studio" style="shape=image;aspect=fixed;image=data:image/svg+xml,PHN2ZyB4bWxucz0iaHR0cDovL3d3dy53My5vcmcvMjAwMC9zdmciIHdpZHRoPSIxOCIgaGVpZ2h0PSIxOCIgdmlld0JveD0iMCAwIDE4IDE4Ij4NCiAgPGRlZnM+DQogICAgPGxpbmVhckdyYWRpZW50IGlkPSJiZTQ5ODQ3Mi0yOTBhLTRjNWMtYmM5ZC01Y2JiYjg3Y2ZmZDgiIHgxPSI5IiB4Mj0iOSIgeTI9IjEzLjUiIGdyYWRpZW50VW5pdHM9InVzZXJTcGFjZU9uVXNlIj4NCiAgICAgIDxzdG9wIG9mZnNldD0iMCIgc3RvcC1jb2xvcj0iI2U4MzIzMSIvPg0KICAgICAgPHN0b3Agb2Zmc2V0PSIxIiBzdG9wLWNvbG9yPSIjY2UxODE3Ii8+DQogICAgPC9saW5lYXJHcmFkaWVudD4NCiAgICA8bGluZWFyR3JhZGllbnQgaWQ9ImI4MmM5YmIyLWYxNzYtNDNjNy1iZmNhLWNkMTQwM2NlNTBiNCIgeDE9IjE2LjYxIiB5MT0iMTYuNzUiIHgyPSI0LjM4IiB5Mj0iNC4zIiBncmFkaWVudFVuaXRzPSJ1c2VyU3BhY2VPblVzZSI+DQogICAgICA8c3RvcCBvZmZzZXQ9IjAuMDQiIHN0b3AtY29sb3I9IiNhODAwMDAiLz4NCiAgICAgIDxzdG9wIG9mZnNldD0iMC4zMiIgc3RvcC1jb2xvcj0iI2EzMDMwMiIvPg0KICAgICAgPHN0b3Agb2Zmc2V0PSIwLjYzIiBzdG9wLWNvbG9yPSIjOTYwYzA2Ii8+DQogICAgICA8c3RvcCBvZmZzZXQ9IjAuNzEiIHN0b3AtY29sb3I9IiM5MTBmMDgiLz4NCiAgICAgIDxzdG9wIG9mZnNldD0iMC43NCIgc3RvcC1jb2xvcj0iIzhiMGUwNyIvPg0KICAgICAgPHN0b3Agb2Zmc2V0PSIwLjc5IiBzdG9wLWNvbG9yPSIjNzkwYTA1Ii8+DQogICAgICA8c3RvcCBvZmZzZXQ9IjAuODUiIHN0b3AtY29sb3I9IiM1YjA1MDIiLz4NCiAgICAgIDxzdG9wIG9mZnNldD0iMC44OSIgc3RvcC1jb2xvcj0iIzQwMCIvPg0KICAgIDwvbGluZWFyR3JhZGllbnQ+DQogICAgPGxpbmVhckdyYWRpZW50IGlkPSJiYzRhZWQzOC1mNWFlLTQ0MWItYmJiNC1mNjllYjU1ZmNlY2YiIHgxPSIxNy4zOCIgeTE9IjE2LjMyIiB4Mj0iMTEuNjEiIHkyPSI3LjY0IiBncmFkaWVudFVuaXRzPSJ1c2VyU3BhY2VPblVzZSI+DQogICAgICA8c3RvcCBvZmZzZXQ9IjAuMzUiIHN0b3AtY29sb3I9IiNhODAwMDAiLz4NCiAgICAgIDxzdG9wIG9mZnNldD0iMC41MiIgc3RvcC1jb2xvcj0iI2EyMDQwMiIvPg0KICAgICAgPHN0b3Agb2Zmc2V0PSIwLjc1IiBzdG9wLWNvbG9yPSIjOTEwZjA4Ii8+DQogICAgICA8c3RvcCBvZmZzZXQ9IjAuOCIgc3RvcC1jb2xvcj0iIzhiMGUwNyIvPg0KICAgICAgPHN0b3Agb2Zmc2V0PSIwLjg3IiBzdG9wLWNvbG9yPSIjNzkwYTA1Ii8+DQogICAgICA8c3RvcCBvZmZzZXQ9IjAuOTQiIHN0b3AtY29sb3I9IiM1YjA1MDIiLz4NCiAgICAgIDxzdG9wIG9mZnNldD0iMC45OSIgc3RvcC1jb2xvcj0iIzQwMCIvPg0KICAgIDwvbGluZWFyR3JhZGllbnQ+DQogIDwvZGVmcz4NCiAgPHBhdGggZD0iTTEwLjE4LDlWMy4zMkwwLDEzLjVWNEE0LjksNC45LDAsMCwxLDEuMzMsMS4zMSw0LjQzLDQuNDMsMCwwLDEsNC4yNywwSDEzLjVMMTgsNC41LDEzLjUsOVoiIGZpbGw9InVybCgjYmU0OTg0NzItMjkwYS00YzVjLWJjOWQtNWNiYmI4N2NmZmQ4KSIvPg0KICA8cGF0aCBkPSJNNy44Miw5djUuNjhMMTgsNC41VjE0YTQuOSw0LjksMCwwLDEtMS4zMywyLjcxQTQuNDksNC40OSwwLDAsMSwxMy43MywxOEg0LjVMMCwxMy41LDQuNSw5WiIgZmlsbD0idXJsKCNiODJjOWJiMi1mMTc2LTQzYzctYmZjYS1jZDE0MDNjZTUwYjQpIi8+DQogIDxwYXRoIGQ9Ik03LjgyLDE0LjY4LDE4LDQuNVYxNGE0LjksNC45LDAsMCwxLTEuMzMsMi43MUE0LjQ5LDQuNDksMCwwLDEsMTMuNzMsMThaIiBmaWxsPSJ1cmwoI2JjNGFlZDM4LWY1YWUtNDQxYi1iYmI0LWY2OWViNTVmY2VjZikiLz4NCjwvc3ZnPg==;labelPosition=center;verticalLabelPosition=bottom;align=center;verticalAlign=top;fontStyle=5;labelBackgroundColor=default;" parent="IsQZMXGbZP2ML0eVI5PD-4" vertex="1">
          <mxGeometry x="98" y="141" width="60" height="60" as="geometry" />
        </mxCell>
        <mxCell id="l4qQVPM9uVf8yrw8s2FZ-2" value="Load Test" style="shape=image;aspect=fixed;image=data:image/svg+xml,PHN2ZyB4bWxucz0iaHR0cDovL3d3dy53My5vcmcvMjAwMC9zdmciIHdpZHRoPSIxOCIgaGVpZ2h0PSIxOCIgdmlld0JveD0iMCAwIDE4IDE4Ij4NCiAgPGRlZnM+DQogICAgPGxpbmVhckdyYWRpZW50IGlkPSJiMTM4MjFhYS02NTY3LTQxZDMtYjkyZC1iYThiMTNmZWQ2YzEiIHgxPSI1LjM1NyIgeTE9IjE0LjM3OCIgeDI9IjUuMzU3IiB5Mj0iMC4zNTgiIGdyYWRpZW50VW5pdHM9InVzZXJTcGFjZU9uVXNlIj4NCiAgICAgIDxzdG9wIG9mZnNldD0iMCIgc3RvcC1jb2xvcj0iIzAwNWJhMSIvPg0KICAgICAgPHN0b3Agb2Zmc2V0PSIwLjkxNCIgc3RvcC1jb2xvcj0iIzAwNzhkNCIvPg0KICAgIDwvbGluZWFyR3JhZGllbnQ+DQogICAgPGxpbmVhckdyYWRpZW50IGlkPSJiMjYwMWU5Mi1lZjBiLTQyYjQtYWEwOC03ZGM3ZTIxYzU2MzEiIHgxPSIxMy4xNTEiIHkxPSI5LjQyIiB4Mj0iMTMuMTUxIiB5Mj0iMTguNCIgZ3JhZGllbnRVbml0cz0idXNlclNwYWNlT25Vc2UiPg0KICAgICAgPHN0b3Agb2Zmc2V0PSIwLjM0NiIgc3RvcC1jb2xvcj0iIzAwNzhkNCIvPg0KICAgICAgPHN0b3Agb2Zmc2V0PSIwLjYwNSIgc3RvcC1jb2xvcj0iIzAwNmVjMyIvPg0KICAgICAgPHN0b3Agb2Zmc2V0PSIxIiBzdG9wLWNvbG9yPSIjMDA1YmExIi8+DQogICAgPC9saW5lYXJHcmFkaWVudD4NCiAgPC9kZWZzPg0KICA8ZyBpZD0iYmNjZjEyMzAtYmI4Zi00NDA0LTlkOTYtOTZiNGU4OTE4NDVkIj4NCiAgICA8Zz4NCiAgICAgIDxwYXRoIGQ9Ik0xMC43MTQsOC4xMThhNS4yMDksNS4yMDksMCwwLDAtMS4xOC44NWwtLjg2LTEuMjZhLjguOCwwLDAsMS0uMTUtLjQ3VjUuMTU4YS4zOC4zOCwwLDAsMC0uMzgtLjM4SDYuMjU0YS4zOC4zOCwwLDAsMC0uMzguMzh2MS45NWExLjIsMS4yLDAsMCwxLS4yMi42OWwtMy4zMiw0Ljg0YS4zMzIuMzMyLDAsMCwwLS4wNS4xNi4yOS4yOSwwLDAsMCwuMjkuMjloNS4zMmE0Ljk4NCw0Ljk4NCwwLDAsMCwuMjMsMS4yOUguNTM0Yy0uNDMsMC0uNjgtLjY4LS40NC0xLjAzbDQuNTktNi43YS41MjkuNTI5LDAsMCwwLC4wOS0uM1YxLjkwOGEuMjU4LjI1OCwwLDAsMC0uMjYtLjI2aC0uMjRhLjUzMS41MzEsMCwwLDEtLjUzLS41MlYuODg4YS41MzQuNTM0LDAsMCwxLC41My0uNTNoNS44NWEuNTM0LjUzNCwwLDAsMSwuNTMuNTN2LjI0YS41MjUuNTI1LDAsMCwxLS41Mi41M2gtLjI1YS4yNjcuMjY3LDAsMCwwLS4yNy4yNnY0LjQ0YS41MjkuNTI5LDAsMCwwLC4wOS4zWiIgZmlsbD0idXJsKCNiMTM4MjFhYS02NTY3LTQxZDMtYjkyZC1iYThiMTNmZWQ2YzEpIi8+DQogICAgICA8Y2lyY2xlIGN4PSIxMy4xNTEiIGN5PSIxMi43OSIgcj0iNC44NDkiIGZpbGw9InVybCgjYjI2MDFlOTItZWYwYi00MmI0LWFhMDgtN2RjN2UyMWM1NjMxKSIvPg0KICAgICAgPGVsbGlwc2UgY3g9IjEzLjE1MSIgY3k9IjEyLjc5IiByeD0iMy45NjMiIHJ5PSIzLjk0NyIgZmlsbD0iI2ZmZiIvPg0KICAgICAgPHBhdGggZD0iTTE1LjcxMiwxMC41NjdhMy43MjgsMy43MjgsMCwwLDEsLjgsMS44OTMuMDg4LjA4OCwwLDAsMS0uMDg4LjA5NEgxNS4xYS4wODcuMDg3LDAsMCwxLS4wODUtLjA3NCwxLjkyOCwxLjkyOCwwLDAsMC0uMzY5LS44NDIsMS4zOTMsMS4zOTMsMCwwLDAtLjM0OC0uMzEsMS44MjEsMS44MjEsMCwwLDAtLjg0MS0uMzY1LjA4OC4wODgsMCwwLDEtLjA3NS0uMDg2VjkuNTMxYS4wODguMDg4LDAsMCwxLC4wOTQtLjA4N0EzLjI5NCwzLjI5NCwwLDAsMSwxNS43MTIsMTAuNTY3WiIgZmlsbD0iI2Y3OGQxZSIvPg0KICAgICAgPHBhdGggZD0iTTE1Ljk4MiwxMS42ODJhLjI1MS4yNTEsMCwwLDAtLjMxOS0uMTRsLTIuMzEuOTMuMTguNDU0LDIuMzA5LS45MTNhLjI0Ny4yNDcsMCwwLDAsLjE0Ni0uMzE3WiIgZmlsbD0iIzAwNWJhMSIvPg0KICAgICAgPGNpcmNsZSBjeD0iMTMuMTAxIiBjeT0iMTIuODAzIiByPSIwLjY3MyIgZmlsbD0iIzVlYTBlZiIvPg0KICAgICAgPHBhdGggZD0iTTEwLjEsMTMuOTU3bDEuMjg0LS4zOWEuMDg3LjA4NywwLDAsMSwuMS4wNDUsMS45MDYsMS45MDYsMCwwLDAsLjcxNy43NjIuMDg2LjA4NiwwLDAsMSwuMDM0LjExNkwxMS42LDE1LjY3M2EuMDg3LjA4NywwLDAsMS0uMTE5LjAzNSwzLjMzNywzLjMzNywwLDAsMS0xLjQ0Mi0xLjYzNUEuMDg2LjA4NiwwLDAsMSwxMC4xLDEzLjk1N1ptLjE3OS0yLjk2NmEzLjcxNSwzLjcxNSwwLDAsMC0uNDkyLDEuOTk0LjA4Ni4wODYsMCwwLDAsLjEuMDc5bDEuMzEtLjIwNmEuMDg4LjA4OCwwLDAsMCwuMDczLS4wODYsMS45MjMsMS45MjMsMCwwLDEsLjIzNC0uODg5LDEuNDExLDEuNDExLDAsMCwxLC4yOTUtLjM2MSwxLjgyNSwxLjgyNSwwLDAsMSwuNzc0LS40OTEuMDkuMDksMCwwLDAsLjA2MS0uMWwtLjIxLTEuMzI5YS4wODUuMDg1LDAsMCwwLS4xMDYtLjA3MUEzLjI4NiwzLjI4NiwwLDAsMCwxMC4yNzYsMTAuOTkxWiIgZmlsbD0iI2I0ZWMzNiIvPg0KICAgICAgPHBhdGggZD0iTTcuODg0LDEyLjc4OGMwLC4xLDAsLjIuMDEuM0gyLjU3NGEuMjkuMjksMCwwLDEtLjI5LS4yOS4zMzIuMzMyLDAsMCwxLC4wNS0uMTZMNS42NTQsNy44YTEuMiwxLjIsMCwwLDAsLjIyLS42OVY1LjE1OGEuMzguMzgsMCwwLDEsLjM4LS4zOGgxLjg5YS4zOC4zOCwwLDAsMSwuMzguMzh2Mi4wOGEuOC44LDAsMCwwLC4xNS40N2wuODYsMS4yNkE1LjIzMSw1LjIzMSwwLDAsMCw3Ljg4NCwxMi43ODhaIiBmaWxsPSIjZmZmIi8+DQogICAgPC9nPg0KICA8L2c+DQo8L3N2Zz4=;labelPosition=center;verticalLabelPosition=bottom;align=center;verticalAlign=top;fontStyle=5;labelBackgroundColor=default;" parent="IsQZMXGbZP2ML0eVI5PD-4" vertex="1">
          <mxGeometry x="98" y="30" width="60" height="60" as="geometry" />
        </mxCell>
      </root>
    </mxGraphModel>
  </diagram>
</mxfile>
